<svg id="healthcare" xmlns="http://www.w3.org/2000/svg" width="29.145" height="28.688" viewBox="0 0 29.145 28.688">
  <path id="Path_209764" data-name="Path 209764" d="M144.8,67.644a.427.427,0,0,0,.366-.207l.77-1.279,1.021,1.622a.427.427,0,0,0,.732-.015l1.643-2.871,2.207,4.022a.427.427,0,0,0,.367.221h.008a.427.427,0,0,0,.367-.208l1.375-2.308h3.315a.427.427,0,1,0,0-.854h-3.558a.427.427,0,0,0-.367.208l-1.117,1.875-2.214-4.035a.427.427,0,0,0-.37-.222h0a.427.427,0,0,0-.371.215L147.3,66.723l-1.011-1.607a.427.427,0,0,0-.361-.2h0a.427.427,0,0,0-.362.207l-1,1.667h-2.426a.427.427,0,0,0,0,.854Zm12.923-11.849a.427.427,0,0,0-.427.427v1.259h-1.259a.427.427,0,0,0,0,.854H157.3v1.259a.427.427,0,1,0,.854,0V58.335h1.259a.427.427,0,0,0,0-.854H158.15V56.222A.427.427,0,0,0,157.723,55.795Z" transform="translate(-133.639 -52.847)"/>
  <path id="Path_209765" data-name="Path 209765" d="M25.591,21.585a8.123,8.123,0,0,0,1.533-8.469,5.061,5.061,0,1,0-6.2-8,.427.427,0,1,0,.534.666,4.159,4.159,0,0,1,2.627-.92A4.208,4.208,0,1,1,19.9,9.546s0-.01,0-.015a4.231,4.231,0,0,1-.026-.461,4.151,4.151,0,0,1,.44-1.873.427.427,0,1,0-.764-.382,5,5,0,0,0-.53,2.255c0,.072,0,.143,0,.214A8.073,8.073,0,0,0,16.1,11.133l-.472.464-.006-.006-.464-.457A7.573,7.573,0,0,0,9.765,8.867a5.65,5.65,0,0,0-4.1,1.815.427.427,0,1,0,.624.583A4.811,4.811,0,0,1,9.783,9.721a6.72,6.72,0,0,1,4.775,2.021l.465.458a.91.91,0,0,0,.606.331.9.9,0,0,0,.6-.324l.472-.464a7.246,7.246,0,0,1,2.441-1.588,5.06,5.06,0,0,0,7.247,3.425A7.255,7.255,0,0,1,24.97,21l-6.129,6.274-.507.1L18,27.437a3.251,3.251,0,0,1-1.55.045L12.8,26.814a.56.56,0,0,1-.42-.687.521.521,0,0,1,.585-.428l.01,0,.525.067c.692.089,1.475.19,2.171.261a2.008,2.008,0,0,0,2.4-1.408,2.143,2.143,0,0,0-1.726-2.367.514.514,0,0,0-.053-.013l-2.352-.431a9.717,9.717,0,0,0-3.772.22c-.4.072-.848.154-1.35.236L7.7,22.449,7.359,22.1,6.286,21a7.3,7.3,0,0,1-1.079-8.191.427.427,0,0,0-.76-.389,8.167,8.167,0,0,0,1.219,9.167l.006.007,1,1.026-1.866.307v-.049a.625.625,0,0,0-.648-.6H.647a.624.624,0,0,0-.647.6v7.512a.624.624,0,0,0,.647.6H4.159a.625.625,0,0,0,.648-.6v-.052l3.839,1.045,3.544.963a6.857,6.857,0,0,0,2.056.355,8.846,8.846,0,0,0,2.8-.6l.289-.093,6.984-2.239a2.179,2.179,0,0,0,1.54-1.559,1.521,1.521,0,0,0-.448-1.468,2.486,2.486,0,0,0-2.558-.252l-2.535.5,5.268-5.391.006-.007ZM.854,30.132v-7h3.1v6.645h0v.353Zm22.235-2.824a1.861,1.861,0,0,1,1.748.063.668.668,0,0,1,.187.655,1.342,1.342,0,0,1-.967.927l-6.985,2.24-.291.094a5.853,5.853,0,0,1-4.344.24l-.015,0L4.807,29.451V23.79l4.147-.681c.509-.084.964-.167,1.365-.24a8.973,8.973,0,0,1,3.464-.219l2.324.426c.906.3,1.219.918,1.124,1.371-.109.524-.687.812-1.473.732-.684-.07-1.462-.17-2.148-.258l-.523-.067a1.365,1.365,0,0,0-1.539,1.078,1.446,1.446,0,0,0-.035.42,1.416,1.416,0,0,0,1.05,1.284c.018.006.253.05.253.05l3.487.638.011,0a3.852,3.852,0,0,0,1.472.024c.116-.02.587-.116.708-.139l.768-.15s3.807-.746,3.822-.751Z" transform="translate(0 -4.01)"/>
</svg>
