<svg id="hiring_" xmlns="http://www.w3.org/2000/svg" width="45.85" height="39.194" viewBox="0 0 45.85 39.194">
  <path id="Path_209761" data-name="Path 209761" d="M324.448,88.629V66.1h.959V61.052a1.548,1.548,0,0,1,1.18-1.5V56.48h3.834V80.223h-4.056v8.406H330.6v3.244H320.214V88.629h4.234ZM334.66,88.6,347.2,90.1v1.77H334.66ZM347.2,92.577H320.214v3.1H347.2Z" transform="translate(-320.214 -56.48)" fill="#fecc5d"/>
  <ellipse id="Ellipse_2267" data-name="Ellipse 2267" cx="6.722" cy="6.721" rx="6.722" ry="6.721" transform="translate(26.805 2.418)" fill="#fecc5d"/>
  <path id="Path_209762" data-name="Path 209762" d="M2.681,335.421l10.812-.009h.365v-1.787l.013-1.5a6.471,6.471,0,0,1,6.471-6.471c.121,0,.241,0,.361.011l.009-.011a6.1,6.1,0,0,1,6.1,6.1v17.231H13.858v-7.34l.171-.013a.14.14,0,0,1,.023,0,3.135,3.135,0,0,0,2.309-1.015l5.258-5.74a.449.449,0,1,0-.662-.607L15.7,340.013a2.318,2.318,0,0,1-1.664.761l-.618.009H2.681a2.681,2.681,0,1,1,0-5.362Z" transform="translate(19.037 -309.796)" fill="#fecc5d"/>
</svg>
