<svg xmlns="http://www.w3.org/2000/svg" width="13.673" height="11.963" viewBox="0 0 13.673 11.963">
  <g id="withdraw" transform="translate(0 -3)">
    <path id="Path_185721" data-name="Path 185721" d="M16.132,18.836a.286.286,0,0,1-.2-.083L13.082,15.9a.284.284,0,0,1,.2-.487h1.424V12.57a.57.57,0,0,1,.57-.57h1.709a.57.57,0,0,1,.57.57v2.848h1.424a.285.285,0,0,1,.2.487l-2.848,2.848a.286.286,0,0,1-.2.083Zm-2.161-2.848,2.161,2.161,2.161-2.161H17.272a.285.285,0,0,1-.285-.285V12.57H15.278V15.7a.285.285,0,0,1-.285.285Z" transform="translate(-5.593 -3.873)"/>
    <path id="Path_185722" data-name="Path 185722" d="M6.551,13.254H1.424A1.426,1.426,0,0,1,0,11.83V4.424A1.426,1.426,0,0,1,1.424,3H12.248a1.426,1.426,0,0,1,1.424,1.424v5.7a.285.285,0,1,1-.57,0v-5.7a.856.856,0,0,0-.855-.855H1.424a.856.856,0,0,0-.855.855V11.83a.856.856,0,0,0,.855.855H6.551a.285.285,0,0,1,0,.57Z"/>
    <path id="Path_185723" data-name="Path 185723" d="M4.273,12.557H.285A.285.285,0,0,1,0,12.273V8.285A.285.285,0,0,1,.285,8H4.273A1.426,1.426,0,0,1,5.7,9.424v1.709A1.426,1.426,0,0,1,4.273,12.557Zm-3.7-.57h3.7a.856.856,0,0,0,.855-.855V9.424a.856.856,0,0,0-.855-.855H.57Z" transform="translate(0 -2.152)"/>
    <path id="Path_185724" data-name="Path 185724" d="M4.139,12.279a1.139,1.139,0,1,1,1.139-1.139A1.141,1.141,0,0,1,4.139,12.279Zm0-1.709a.57.57,0,0,0,0,1.139.57.57,0,0,0,0-1.139Z" transform="translate(-1.291 -3.012)"/>
  </g>
</svg>
