<svg xmlns="http://www.w3.org/2000/svg" width="603.728" height="430.597" viewBox="0 0 603.728 430.597">
  <path id="bef1" d="M59.647,231.9v1.454l1.454.559a2.678,2.678,0,0,1,2.741,1.846.839.839,0,0,0,.5.392c2.238-.392,2.8,1.734,4.2,2.685h.5v-.783c0-.28,0-1.063,1.454-1.063-.392-.727-.783-1.4-1.119-2.126s0-.448,0-.839h2.126a2.182,2.182,0,0,1-1.4,2.741v2.8h0a7.445,7.445,0,0,0,1.175-.5,1.4,1.4,0,0,1,2.238.448h0l3.636.448.392,1.9c.448-.392,1.007-.559,1.175-.951a7.608,7.608,0,0,0,1.119-1.9,4.755,4.755,0,0,1-4.308-1.4l-1.846-.783a5.584,5.584,0,0,1,.336-2.294h4.14c.448,0,.951,0,1.007.951l-3.692,2.182h3.8c1.287,0,.783.671.783,1.287a11.682,11.682,0,0,1,1.287,1.622,10.239,10.239,0,0,1,.559,1.566l1.4-.9c.671,1.287,1.287,2.573,1.9,3.86,2.461.727,4.867,1.454,7.328,2.07a6.043,6.043,0,0,0,2.014,0h.783l-.28.783a.783.783,0,0,0,1.231,0c.727-.9,1.622-.727,2.517,0a8.253,8.253,0,0,0,2.126,1.287,4.2,4.2,0,0,0,1.958.5,3.636,3.636,0,0,1,3.748,2.965,17.453,17.453,0,0,0,1.51,2.8h-.9a13.538,13.538,0,0,0-7.216-1.9,9.006,9.006,0,0,0-1.734,0,2.685,2.685,0,0,1-1.958-.671c-.5-.448-.615-1.343-1.79-1.119a2.517,2.517,0,0,1-1.846-.783,17.945,17.945,0,0,1-1.566-2.405,12.868,12.868,0,0,1-2.405,2.07,19.916,19.916,0,0,1-3.636.727c-.448-1.007.28-1.4.671-1.958h0a26.234,26.234,0,0,1-4.7.5,13.5,13.5,0,0,1-3.748-1.175l.727-3.189c-.559-.559-.839,0-1.175,0a1.846,1.846,0,0,1-2.685-.336l1.175-.951H72.9a17.268,17.268,0,0,0,.671,3.077l-2.294,1.51a32,32,0,0,0,5.594,1.231c.839,0,1.734.727,2.629.9a25.226,25.226,0,0,1,5.594,1.566,27.467,27.467,0,0,1,3.468,1.566,2.629,2.629,0,0,0,1.622.5,1.958,1.958,0,0,1,1.566.5,6.49,6.49,0,0,0,5.594,2.126c0,1.622.951,2.238,2.405,2.517s2.014-1.119,3.021-1.231l3.245,1.9a9.507,9.507,0,0,1,1.51-1.063,1.007,1.007,0,0,1,.951,0,5.2,5.2,0,0,0,4.028,2.182l4.307.336a22.889,22.889,0,0,0,0,2.294,7.841,7.841,0,0,0,.335,1.566l-1.119.615a1.007,1.007,0,0,0,.5,0,7.272,7.272,0,0,1,5.594,0c2.629-2.461,3.86-2.517,6.433-.5h.28l1.175,1.063c-1.175,1.007-2.126,1.622-3.692.615s-2.8.559-4.252.5a1.314,1.314,0,0,1-.392.951c-.392.28-.783.559-.839.5-1.287-1.343-2.685,0-3.972,0l-1.678-.28,1.958,1.231c-2.461.671-2.461.671-3.916-1.51,0,.392-.336.615-.448.9s0,.615-.336,1.063a11.683,11.683,0,0,1-1.4,0H109.1l2.014,1.622a12,12,0,0,1-.336,2.685c0,1.007,0,1.175,1.846,1.4h0l-.727-1.007,2.126-2.294,1.622.9.615-1.119c.5,0,.671.559,1.846,2.8.615,1.119,0,2.238.727,3.468h-2.07c-.336.336-.671.9-1.007.9s-1.9,0-2.294-.448a3.244,3.244,0,0,0-2.07-1.063,6.489,6.489,0,0,1-3.356-1.734,3.859,3.859,0,0,0-1.566-.839,1.175,1.175,0,0,0-.839.392.559.559,0,0,0,0,.671,2.125,2.125,0,0,0,.5.839,2.517,2.517,0,0,1,.783,3.86c-.28.5-.448,1.063-.671,1.566l-1.958.783s0,.559.336.615c1.566.448,3.356.559,4.2,2.685a6.28,6.28,0,0,1-.448.951c-1.51,2.461-1.79,2.517-4.419,1.4a3.077,3.077,0,0,0-1.678-.392l-4.979,1.063c.5.392.839.839,1.175.9a9.34,9.34,0,0,0,2.8,0,8.839,8.839,0,0,1,7.1,1.958l-2.35,1.846a31.3,31.3,0,0,1,.448,3.3c0,1.063-.5,2.126.28,3.356a4.812,4.812,0,0,0,1.454,0c2.238,0,2.238,0,3.468,2.126a8.562,8.562,0,0,0,1.678,0,5.594,5.594,0,0,1,4.084,0h1.678c.559,0,1.119.671,1.287,1.4h.615c.615.28,1.063.727.839,1.343s-.671.5-1.063.727l-.448.336s.448.28.671,0a6.545,6.545,0,0,1,5.93,1.063c.783.615,2.238.392,3.412.559a4.083,4.083,0,0,1,.5.448,2.517,2.517,0,0,0,3.133,1.622,5.594,5.594,0,0,1,4.923,1.119c.727.615,2.014.448,2.909.9a19.187,19.187,0,0,0,6.042,1.734c.951,0,1.343.615,1.9,1.231s.615-.28.839-.615a60.535,60.535,0,0,1,9.007,2.238c0,1.175,0,2.014,1.622,2.126,0-1.175.783-1.9,1.343-2.909,1.175.448,1.79,1.9,3.189,1.9a9.342,9.342,0,0,0,3.524,0,1.286,1.286,0,0,1,1.007,0c2.629,1.4,5.594,1.119,8.391,2.294,0,0,.28.392.448.615-.615,1.343-1.9,0-2.965.783l2.741,2.07c-1.343.559-2.238,0-3.245-.448h0l.448,2.405a9.622,9.622,0,0,1,4.923.559,6.714,6.714,0,0,0,2.405,0,13.65,13.65,0,0,1-1.566-.783,4.641,4.641,0,0,1-1.119-1.231,1.006,1.006,0,0,1,0-.9,1.119,1.119,0,0,1,.951,0,6.708,6.708,0,0,1,1.175.727,4.98,4.98,0,0,0,.783.727l1.454.727-1.9.839a8.615,8.615,0,0,0,5.594,1.9,5.091,5.091,0,0,1,2.685.839,2.743,2.743,0,0,1,.336.9c-1.566.5-.615,2.573-2.182,3.021l1.958.9c0,1.063-.783.9-1.175,1.231l-1.063.783s0,.559.336.559c1.287-.28,2.461-.559,3.3.9,0,.392,1.063,0,1.175-.727,0-1.622.5-1.958,1.846-1.734l3.748,1.007c.839-.5-.783-2.573,1.343-2.461.671,0,.448.727.559,1.175l.336,1.063.783.559c.727.392,1.566.615,2.238,1.063a6.484,6.484,0,0,1,1.119,1.343c.5.5-.559,1.231,0,1.79s1.119.448,1.119,1.343h-3.86l-1.51,2.294,2.014,1.007,1.566-2.349a6.422,6.422,0,0,1,.9,1.063c1.4,3.356,1.4,3.356,4.923,4.979,1.678,0,2.629-2.853,4.811-.9V346.8a5.986,5.986,0,0,1,3.8-1.287c.727,0,1.007.392,1.063,1.846a25.272,25.272,0,0,0-2.629.615c-.783,0-.9.9-.392,1.622a4.924,4.924,0,0,0,.839.671c.671-.615,1.4-1.119,2.685,0h-2.8c.671,1.007,2.126.9,2.685,2.07H222.6v-1.454h3.636c2.07,1.734,4.867,1.287,7.16,2.405h0c1.063-.615,1.622-.615,1.958,0a13.665,13.665,0,0,1,.671,2.126c2.238-1.566,4.531,0,6.993,0a12.3,12.3,0,0,1,.951,1.4,2.406,2.406,0,0,0,2.238,1.4,3.3,3.3,0,0,1,2.238.671c.9.727,1.454,0,2.014-.671a12.138,12.138,0,0,1-4.419-1.734c.9-.951,1.622,0,2.461,0a2.126,2.126,0,0,1,1.9,1.678,10.067,10.067,0,0,1,2.294.783c1.119.839,2.182.392,3.245,0,.559.9.839,1.734,0,2.517a1.9,1.9,0,0,0-.392,2.238,2.685,2.685,0,0,0,2.629,1.287l2.741-.336a2.965,2.965,0,0,1,2.629.615h0l.671.727h0a1.063,1.063,0,0,0,.336-1.51,1.678,1.678,0,0,0-1.063-.671,10.069,10.069,0,0,1-4.587-.951,2.554,2.554,0,0,0-1.622.448h0c-.336-1.846,0-2.517,1.454-2.07,3.3,1.175,6.881,1.4,10.069,2.853a2.182,2.182,0,0,0,1.342,0,9.118,9.118,0,0,1,5.2.392,59.585,59.585,0,0,0,7.44,1.734c1.119,0,1.175,1.007,1.734,1.51a2.238,2.238,0,0,1,2.685-.9c2.8,1.007,5.594,1.79,8.671,2.685h0a5.594,5.594,0,0,0,4.251,1.846c2.629,0,5.2.839,7.888.9h0c.783-1.231.783-1.231,2.238,0l-1.51.839h0v3.524h-2.238a12.587,12.587,0,0,0,1.622.727,36.305,36.305,0,0,1,10.629,1.9,3.8,3.8,0,0,1,3.412.951s.5-.336.783-.559h0c.783,0,2.126-.5,2.182,0,0,1.678,1.175,1.119,2.182,1.287a11.188,11.188,0,0,1,6.042,1.678c1.51-.336.839-1.734,1.4-2.573,1.51-.559,1.4,1.4,2.461,1.566a10.181,10.181,0,0,1,7.272,0s.448.336.615.28c2.629,0,5.258.448,7.888,0-1.678-.559-3.189-1.734-5.147-1.231-.448,0-.5,0-1.9-1.063l2.462-.448h0l.727-1.51h0a4.923,4.923,0,0,0-3.748,0l-3.189,1.622a3.357,3.357,0,0,0-5.147-.559h0c-.28,0-.615.615-.783.559a20.7,20.7,0,0,0-6.6-1.566c-1.286-1.287-3.021-1.007-4.587-1.343a8.782,8.782,0,0,1-4.14-2.07c.448-1.287,2.07,0,2.629-1.231l-2.07-1.119c1.454-.615,2.014,0,2.294.9h1.007c.615,0,1.119-.5,1.119.5a.951.951,0,0,0,.336.559c1.231.28,2.349,1.119,3.692.727h0v-1.287a1.846,1.846,0,0,1,2.182.559,2.461,2.461,0,0,0,3.636.615h0c1.231-1.063,2.405.336,3.636,0,.839,1.566,2.07,1.287,3.524.839a5.929,5.929,0,0,1,2.405,0,7.833,7.833,0,0,0,2.685.5,3.524,3.524,0,0,1,3.412,1.287h0a13.706,13.706,0,0,1,6.209-.448s.448.448.671.727-.671.783-.951.783a19.151,19.151,0,0,1-3.468-.727c-1.175-.224-1.063,1.343-1.175,2.294h4.531a17.792,17.792,0,0,1,2.405.336s.448.336.448.448,0,.727-.392.839a2.014,2.014,0,0,1-2.294,0c-.615,0-1.4-.448-1.734.5s0,.448.392.448l12.475,1.622a6.1,6.1,0,0,1,1.454,0,37.758,37.758,0,0,0,11.748,1.063c1.4,0,2.909-.336,3.86,1.119h.615c1.343-.671,1.566.5,2.126,1.287s.9-1.175,1.846-1.007a11.527,11.527,0,0,0,2.405,0c.448-.615.783-1.231,1.231-1.734a17.5,17.5,0,0,1,2.07-1.566c-1.566,0-2.573-.559-3.245.783s-1.343,1.231-2.461,1.175,1.007-1.007.839-1.846a11.189,11.189,0,0,1,0-2.238h2.517a70.038,70.038,0,0,1,12.755,1.79,9.956,9.956,0,0,0,3.133,0h0l.559-.727a5.874,5.874,0,0,0,4.364,1.51,5.593,5.593,0,0,1,2.182.839h0c-.671,1.231-2.126.671-3.077,1.287l-.727,1.454h-.727a2.965,2.965,0,0,0-2.965-1.454c-1.007,0-2.126.5-2.909-.783H404.8a9.115,9.115,0,0,1-1.734,0,5.93,5.93,0,0,0-4.363.336,2.462,2.462,0,0,0-2.349-.28c-.615.28-1.007.671-.839,1.287a1.566,1.566,0,0,0,.839.951,7.887,7.887,0,0,0,2.741.5c1.734,0,3.357,1.007,5.147.336h.671c.224,0,.839,1.119,1.734.9a5.593,5.593,0,0,1,1.678,0,11.971,11.971,0,0,1,6.265,1.958,9.61,9.61,0,0,0,1.678.615c.839-.727,2.126-1.231,1.287-2.741,0,0,.336-.615.615-.727a1.063,1.063,0,0,1,.9.336s0,.615,0,.951a1.113,1.113,0,0,0,1.4.951,10.181,10.181,0,0,0,1.678-.615h0a11.938,11.938,0,0,1,.56-2.35c-.615-1.79-3.189-1.175-3.972-3.133a8.281,8.281,0,0,1,1.511,0c3.189.615,6.433,1.119,9.622,1.846,2.182.448,4.363.392,6.545.783,1.566-.671,2.685.336,3.8,1.119l1.119.783c.951,0,1.734-1.287,2.853,0s1.007-.392,1.566-1.007,2.741,1.063,4.2,0a3.372,3.372,0,0,1,1.119.559,1.231,1.231,0,0,0,1.063.671c.951,0,1.119.336.392.9s.5.951,0,1.454h-6.209c.559,1.007,1.678.559,2.517.951s1.343.727,2.014,2.35l4.587-1.343c.671,0,.783-.783.951-1.287h-1.51l1.4.392a5.146,5.146,0,0,0,4.811,2.741l1.958-2.014,3.412,1.119-2.293,1.454h-2.07a21.258,21.258,0,0,0,6.713,1.9,7.554,7.554,0,0,1,2.014.448,16.054,16.054,0,0,0,5.594,1.734,4.643,4.643,0,0,1,1.958.559c1.566,1.119,3.245.615,4.923.559v-.5c-1.4-.951-3.133,0-4.643-.9s-3.245-.5-4.251-2.238a4.643,4.643,0,0,1,3.468,0,55.327,55.327,0,0,0,11.188,2.293,5.035,5.035,0,0,1,1.231.615c-.727.839-1.343.5-1.958,0s-1.175,0-1.9.559a4.867,4.867,0,0,0,3.748,1.846,7.888,7.888,0,0,1,5.594,1.734,4.251,4.251,0,0,1,5.986-1.678l1.846.559a11.2,11.2,0,0,0,0,2.014,1.007,1.007,0,0,0,1.454.727l.559-1.566a1.973,1.973,0,0,1,.671-.28h2.741a25.9,25.9,0,0,0,3.468.5,11.916,11.916,0,0,1,7.049,1.454,4.921,4.921,0,0,0,2.405.5,75.52,75.52,0,0,1,16.5,3.189A34.737,34.737,0,0,0,547,411.41a14.378,14.378,0,0,1,5.035,1.4c1.958.783,3.972,1.4,5.986,2.014a8.894,8.894,0,0,1,4.363,2.965c.336,0,.615-.783.951-.783a1.271,1.271,0,0,0,1.343-.727.9.9,0,0,1,1.455,0,26.507,26.507,0,0,1,2.238,2.741c.671.951,0,1.678-.615,2.461,2.126.727,2.126.727,2.405,2.8a7.386,7.386,0,0,1,1.566,0,1.007,1.007,0,0,1,.783.615s0,.671-.448.839a11.174,11.174,0,0,1-1.231.448c0,.9.5,1.119,1.063,1.063a16.219,16.219,0,0,0,2.294-.447,15.323,15.323,0,0,0,1.622,1.846c.5.447,1.454,1.007,1.79.783,1.678-.951,2.909,0,4.2.671l1.007.5c1.455,0,3.077-.336,3.412-2.573l-1.175-1.454c-1.119-1.287-1.007-2.014.392-3.133s1.734-.839,1.9-1.9c-1.4-1.231-2.8-.336-4.419,0a13.54,13.54,0,0,0,0-2.238c0-.671-.615-1.231-.727-1.9a9.329,9.329,0,0,1,0-2.126h0l-6.825,3.3a2.126,2.126,0,0,1-2.853-.447c-1.007-1.007-1.622-2.35-3.021-2.853h0c-.448,0-.9-.392-1.343-.671l-.9-.727h0a1.734,1.734,0,0,1-2.517.5,8.391,8.391,0,0,0-3.916-1.343l.5-1.4a5.594,5.594,0,0,0-4.028-1.9l-1.175,1.287-1.454-1.566a2.406,2.406,0,0,0-2.07-.9,22.82,22.82,0,0,1-4.979-1.4,1.549,1.549,0,0,0-1.175.28.951.951,0,0,1-1.342-1.063,26.964,26.964,0,0,1,.783-2.741,7.491,7.491,0,0,0-3.189.448,14.881,14.881,0,0,1-2.741.559,10.124,10.124,0,0,1-2.35-.559,3.021,3.021,0,0,0-2.349.392,3.468,3.468,0,0,1-3.636,0,6.881,6.881,0,0,0-4.028-.671A10.238,10.238,0,0,1,522,402.683a5.594,5.594,0,0,0-3.356-.5,22.377,22.377,0,0,1-8.055-.951,10.325,10.325,0,0,1-3.189-.336c-1.063-.336-3.133-.559-4.7-.951-.392,0-.727-.5-1.175-.839a5.091,5.091,0,0,0,1.175-5.594l2.517,1.4,2.685-1.063a1.79,1.79,0,0,1,1.958.28,3.58,3.58,0,0,0,3.021.5h0c.951-1.343,1.287-1.622,2.126-1.063,1.678,1.175,3.916,1.063,5.258,2.741a1.455,1.455,0,0,0,.951.392,10.182,10.182,0,0,1,6.154,2.853c2.685-1.678,2.685-1.678,6.993,0,.336-.448.727-.839,1.119-1.287,4.475,0,4.923,0,6.713,1.846l.56-1.454c1.4,0,1.622,1.343,3.133,1.734h5.762c1.231-1.454,2.349-.9,3.692,0a4.81,4.81,0,0,0,2.685.448,5.09,5.09,0,0,1,4.7,1.9,2.692,2.692,0,0,0,.671.559h4.2l-1.175-1.119a14.931,14.931,0,0,0,0-2.238c0-.9.783-1.231.839-1.79a9.233,9.233,0,0,0-.727-2.35c1.063-1.79,2.909-1.566,4.531-1.007a6.6,6.6,0,0,0,3.3,0,16.241,16.241,0,0,1,.335,2.294,1.965,1.965,0,0,1-3.076,1.846,3.58,3.58,0,0,0-2.685-.336h0v1.343h2.573a4.308,4.308,0,0,1,1.678.336l5.147,2.238,3.244-2.685-.28-.392c-.615-.783,0-1.566,0-2.35,1.678-1.063.9-2.965,1.51-4.531l-4.084-.392-.56-1.454h0l-1.287.559h-.615a6.21,6.21,0,0,0-4.028-1.79,5.594,5.594,0,0,1-1.4,0c-1.007,0-1.119-.615-.783-2.126,2.685-.951,5.2,1.287,7.888.559v-.28l-.839-1.287-2.965-.5-1.566-2.8a6.6,6.6,0,0,1,5.594-2.126,12.14,12.14,0,0,0,6.937-1.566c-1.9-.783-3.916,1.119-5.594-.671l4.363-2.238h.615c.224,0,1.287,0,1.566.336s0,1.007,0,1.734a12.087,12.087,0,0,1,2.182.671,18.908,18.908,0,0,1,2.013,1.4,16.751,16.751,0,0,0,1.343-2.182,1.846,1.846,0,0,0,0-1.622c-.9-1.175,0-1.622,1.007-2.126-.783-.336-1.287-.671-1.846-.839-1.622-.5-1.622-.448-1.734-2.238v-.559c-1.175,1.566-1.175,1.566-3.077,1.231a13.779,13.779,0,0,0,.5-1.9,3.583,3.583,0,0,0,0-1.4c.839-1.231,2.685-.5,2.853-2.182h.951c.727,0,.5.9.671,1.287l6.489,1.51c.5-.336,1.231-.9,2.014-1.343s1.287.336,1.175.9a13.731,13.731,0,0,1-.392,1.622c.559.559,1.342.5,1.4,0s1.566-1.678,2.126-2.909c-.951-2.182-1.119-4.867-3.692-6.265-.839.839-.839.839-.5,2.294,0,0-.336.392-.5.392l-3.077-.336c-.783,1.063.28,1.958.28,3.077-1.51,1.007-2.853.448-4.363,0l.9-2.909-3.636-2.182a15.491,15.491,0,0,1,.559-2.8,22.88,22.88,0,0,0-6.433,0l-2.182,1.9a6.936,6.936,0,0,1-5.2-1.79c.336,0,.559-.671.839-.671a10.4,10.4,0,0,0,5.315-1.454c.615-.392,1.678,0,2.126-1.007h0l-.839-.783h0s-.615-.5-.559-.727a1.19,1.19,0,0,1,.615-.671,2.294,2.294,0,0,1,2.685,1.287c.5,1.343,1.622,1.51,2.629,2.014.727-.392,0-1.007,0-1.51l.559-1.79a8.615,8.615,0,0,0-7.832-2.741,3.245,3.245,0,0,1-3.021-.392l.392-.783-1.958-.559-1.007-3.356a3.3,3.3,0,0,1,1.231,0l4.811.951h.336a4.811,4.811,0,0,0,4.14,1.343c1.455-.336,2.909.5,4.475,0a6.713,6.713,0,0,1,2.741.336,1.145,1.145,0,0,0,.392.727l-2.238.559c1.958,0,3.8,2.126,5.986,0a6.153,6.153,0,0,0,5.594,2.294,4.587,4.587,0,0,0-.615-1.175,27.36,27.36,0,0,0-6.042-4.084,2.292,2.292,0,0,0-1.007,0,30.04,30.04,0,0,1-8.335-1.51,20.615,20.615,0,0,1-3.468-.615V342.77l-1.454-.9v-.392c0-.056,1.231-1.622,1.9-2.405,1.622,0,2.629-1.4,4.2-1.4h0c-.28-1.958,0-1.958,1.231-2.349a8.425,8.425,0,0,0,.951-.559h0c-.392-1.119.5-1.958.839-3.3l-2.8,1.063c.336,0,.615,0,0,.559l-.392-.392-1.175-.615-.392,1.622a1.007,1.007,0,0,1-1.343-.783c0-.615-.559-1.007-1.287-.951h0c0,.559,0,1.287-.336,1.566s-1.287,0-1.846-.336a2.015,2.015,0,0,1-.392-.559,1.007,1.007,0,0,1,.28-1.51l.839-.559h0l.28-1.119c-1.455-.392-1.678-1.566-1.79-2.741s-.28-1.79-.392-2.685c-2.07,0-1.455-1.9-1.734-3.133h-1.063c-.336-1.175-.615-2.405-.9-3.636s-.727-.783-1.287-.9a6.1,6.1,0,0,1,0,1.007c0,1.231,0,1.287-1.51.839s-1.175,0-1.622,0a15.953,15.953,0,0,1-1.734,2.126H569.66c.671-1.063-.839-.951-.9-1.734a7.272,7.272,0,0,1,4.363-1.678,15.489,15.489,0,0,0,2.685-.615s-.336-.5-.447-.5a3.692,3.692,0,0,1-4.251-2.909,4.352,4.352,0,0,0-.56-.839c-.727,0-1.342.671-2.07,0l.9-1.4h-4.2c-1.231,1.9-3.133,1.119-4.811,1.119s-2.685-1.063-4.14-1.79a4.419,4.419,0,0,1,3.636-1.9c2.685,0,5.594-.336,8.056-.559h.336a1.24,1.24,0,0,0,.951-.783c.056-.336-.392-.839-.9-.839h-1.734a12.815,12.815,0,0,1-1.4,0,1.79,1.79,0,0,1-1.846-1.343,10.164,10.164,0,0,0-.615-2.405c-.224-.839-.56-2.238-.839-3.468h-2.8a1.128,1.128,0,0,0,.336,1.007c.336.28,0,.9-.671,1.063h-.336a20.754,20.754,0,0,0-10.237-.951,8.34,8.34,0,0,0-1.678-1.734,8,8,0,0,0-2.07-.392s-.559-.448-.559-.671.28-.727.559-.727a11.636,11.636,0,0,1,2.405,0,4.531,4.531,0,0,0,2.685-.448c-1.287-.783-3.021,0-4.084-1.063,0-1.454,1.51-.951,2.238-1.287v-.671a2.238,2.238,0,0,1-2.294-1.175,1.678,1.678,0,0,0-2.629-.671v1.007h-2.629l.727-2.238c-.839-.783-1.846,1.007-2.573-.336.392-.839.839-1.734,1.231-2.629s.951-1.846,1.4-2.741c.839,0,1.342,0,1.063,1.007a11.634,11.634,0,0,0-.448,1.454,8.335,8.335,0,0,0,4.643-.783h0a9.454,9.454,0,0,0,1.342-.448,13.089,13.089,0,0,0,2.238-1.51l-1.4-2.294a2.63,2.63,0,0,1-.5-.951,5.593,5.593,0,0,1,3.748-4.028c.559,0,1.119.28,1.678.28a37.194,37.194,0,0,0,5.594,0,44.079,44.079,0,0,1,11.188,0,20.53,20.53,0,0,0,5.2-.336l3.692-.392a3.356,3.356,0,0,0-2.405-1.119,6.657,6.657,0,0,0-2.629-.5,8.279,8.279,0,0,1-5.594-.392c-1.343-.727-2.35-1.454-2.405-3.077a6.836,6.836,0,0,0-.392-1.119l-1.566.9h0c1.51,0,1.007,1.231,1.119,2.238-2.07,1.734-4.475,0-6.545.727-1.007-2.014-1.231-4.307-3.86-4.307h0a11.746,11.746,0,0,1,3.245,5.258c-2.014.615-2.294.448-4.2-2.07l.727-1.007v-.448a10.181,10.181,0,0,0-3.692-.783,7.273,7.273,0,0,1-5.986-.783,10.293,10.293,0,0,0-3.133-.783c-.447-1.175-.28-2.685-1.846-3.189a1.51,1.51,0,0,1-.615-1.119c0-1.79-1.119-2.126-2.517-1.958-.839-1.287-1.4-2.629-2.741-3.245,1.958-2.07,1.958-2.07,3.58-.839.727,0,.5-.559.727-.951a4.084,4.084,0,0,1,1.007-1.231c.783-.727,1.9,1.007,2.741-.559.392-.671,1.678-1.007,2.629-1.231s1.287.5,1.9.615.615,0,.839-.448,0-.5,0-.671a3.469,3.469,0,0,0-3.468-1.9,2.293,2.293,0,0,1-2.349-.671l1.622-2.07-.56-2.238,2.182-.28v-.5c0-.112-.9-.392-1.007-.727a35.594,35.594,0,0,1-1.063-3.692,18.294,18.294,0,0,1,5.594.336,6.266,6.266,0,0,1,1.454-6.042h0l.839-.839h0c.28-.5.615-.615.9,0h0a20.64,20.64,0,0,1,2.517-.615c.951,0,1.007-.615,1.063-1.287h0c.839-.392,1.622-.727,1.678.727a1.007,1.007,0,0,0,1.454,1.007,19.467,19.467,0,0,1,10.237-1.119,3.636,3.636,0,0,0,3.412-1.79L570,231.448l.392-1.454-2.629-1.343c1.063-1.846,2.741,0,4.028-1.063a1.056,1.056,0,0,0-.56-.727c-1.622-.671-2.517-1.678-1.958-3.524a1.247,1.247,0,0,0-.28-.727h-1.342c.56,1.734.56,1.734-1.007,2.014l-.671-1.51c-.951-2.182-.951-2.182-3.524-2.853a3.983,3.983,0,0,0,.559-.783,7.583,7.583,0,0,0,0-.951c.671-.448,1.678,0,2.406-.951l-1.063-.28h-.951c-.559-.727.392-1.063,0-1.9h0a17.977,17.977,0,0,1-1.678-1.175c-.28,0-.5-.671-.727-.671-1.734,0-3.412-.951-5.091,0a3.86,3.86,0,0,1-2.741,0c-2.126-.615-4.252-1.119-6.433-1.678a22.819,22.819,0,0,0-.615-3.3c-1.287-.5-.839-1.678-1.231-2.517a9.958,9.958,0,0,0-2.294-2.629,8.851,8.851,0,0,0-.783.9c0,.615,0,1.454-.9,1.79a4.083,4.083,0,0,1-3.021-.392c-.336,0-.5-.447-.727-.727a2.965,2.965,0,0,0-4.587-.671c0,.671.392,1.119,1.119.839s1.287-.671,1.958,0c-.559.951-2.126,1.119-2.126,2.517h.28a9.622,9.622,0,0,0-7.832-1.063c.839.615,2.629,0,2.573,1.734a13.765,13.765,0,0,0,2.853.839,3.58,3.58,0,0,1,3.076,1.287,7.049,7.049,0,0,1,7.832.783h.168v-.5a4.478,4.478,0,0,1-1.175.727l-4.419.615-.671-1.119c-1.287.783-2.405,0-3.524-.28h-.28s-.336.392-.559.392a9.342,9.342,0,0,1-7.161-1.119L526.7,208.9a7.387,7.387,0,0,1-2.182-.615,2.4,2.4,0,0,0-1.9-.615l.28.559a5.569,5.569,0,0,0,.392.839c-.28,0-.615.336-.839.28a1.062,1.062,0,0,1-.727-.559c0-.727.5-.9,1.007-1.007-1.287-.951-1.287-.951-1.342-2.182h2.965a7.134,7.134,0,0,0-.615-.951.335.335,0,0,0-.336,0c-.9,0-1.79.783-2.629,0a3.356,3.356,0,0,1-.839-2.965,3.468,3.468,0,0,1,.336-.783,15.944,15.944,0,0,0,3.972-.392,14.937,14.937,0,0,1,4.14-.448,8.168,8.168,0,0,1,4.363.951l.951-1.678h.9a2.293,2.293,0,0,0,1.566,1.287c1.119,0,2.294.559,3.412.671a32.876,32.876,0,0,1,7.384.559,17.736,17.736,0,0,1,2.741.671c.559-.5,1.566-.5,2.07-1.51s1.175-.615,1.846-.615a26.927,26.927,0,0,1,4.867.392l-3.133.615a6.656,6.656,0,0,0,2.685.392,16.786,16.786,0,0,0,2.405,0l.392-1.4c.9-.615,2.014.783,3.021-.448-.839-.448-1.622-1.231-2.405-1.231a10.349,10.349,0,0,1-5.594-3.189,8.9,8.9,0,0,1-5.594.727,7.5,7.5,0,0,1-4.587-1.231h0a17.514,17.514,0,0,0-1.119-1.678,2.192,2.192,0,0,1-1.454-.5l.559,1.175a2.8,2.8,0,0,1,0,.9c-2.35,0-4.811.783-7.1-1.007,1.678-.727,3.636,0,4.923-1.678h8.615c0,1.4-1.231,1.063-1.454,1.9a8.1,8.1,0,0,0,1.175,1.231c1.007.839,1.4.671,2.238-1.063a16.446,16.446,0,0,1,6.433-.336,13.593,13.593,0,0,0,4.419-.5,2.349,2.349,0,0,0-1.566-2.909,2.461,2.461,0,0,0-1.958,0,9.4,9.4,0,0,1-5.594,1.175,2.126,2.126,0,0,1-1.958-1.622c-.336-1.007-1.119-1.063-1.846,0a1.288,1.288,0,0,0-.391.559,1.4,1.4,0,0,1-1.958.895,31.446,31.446,0,0,0-4.364-.615,17.175,17.175,0,0,0-4.139,0l-8.559-.5v-1.622a.766.766,0,0,0-.559-.783c-2.126.336-3.245-2.07-5.259-1.622-.336-1.063.336-1.343.671-1.79h-1.622v-.392l1.454.392c.951.9,2.238.671,3.356.783a23.218,23.218,0,0,0,6.545,0,28.747,28.747,0,0,0,4.867,0h0l-1.343-1.454,5.482-.336a11.711,11.711,0,0,0,1.4,0,.727.727,0,0,0,.392-.5,1.341,1.341,0,0,0-.28-.9,1.678,1.678,0,0,0-.895-.448,12.98,12.98,0,0,0-3.86,0,5.6,5.6,0,0,1-3.357-1.007l-1.734,1.622h-2.238l-1.454.727h0l.783,1.287h-2.741a3.524,3.524,0,0,1-1.119-.336l.28-2.517c-.727,0-1.454-.448-1.958,0a7.719,7.719,0,0,1-3.748,0s-.392-.5-.615-.727a5.591,5.591,0,0,1-.951,0l-.336-.447c-.336-.448.447,0,.5,0a4.143,4.143,0,0,1,.727.671c.9-.783.336-1.51-.336-1.958a11.192,11.192,0,0,0-2.461-.839l5.594-1.79a6.824,6.824,0,0,0,4.252.28l-.336-.951c2.126-.783,3.636.559,5.594,1.454a1.211,1.211,0,0,0,.783-.336,4.475,4.475,0,0,1,3.636-.783l3.86.559a4.758,4.758,0,0,0,.671-1.287c0-1.063.671-1.343,1.622-1.4s.783-.336.5-1.119c-1.846,0-3.468,1.846-5.594.9l1.51-1.231-.615-.727a.687.687,0,0,1,.392-1.063,3.188,3.188,0,0,1,1.958,0c1.342,1.4,2.8.727,4.252.727,0-2.238-2.126-1.678-2.853-2.853,0-.9-.336-2.07.9-2.685h2.685l-1.287-4.307c-1.734-1.287-3.8,1.119-5.594-.615-.392-1.063-.839-2.07-1.343-3.245a10.628,10.628,0,0,0,2.182-.615c.671-.336.951-1.342,1.958-1.175h0a1.9,1.9,0,0,1-.392-.615,28.637,28.637,0,0,0-2.405-5.93,3.636,3.636,0,0,0-3.412-2.517h-8.335l-1.678-2.573h0l-.615.615a3.86,3.86,0,0,0-3.356-1.175c-2.294,0-4.531-.28-6.937-.448l1.958-.671a5.594,5.594,0,0,0-3.636-.448h0a5.2,5.2,0,0,0-3.636-.951,1.007,1.007,0,0,1-1.231-.951c0-.727.56-.839,1.119-1.063a3.077,3.077,0,0,1,3.3,0c2.182-.783,4.308.671,6.713,0l.447-1.622h-5.035a37.424,37.424,0,0,1-7.049-.559,17.233,17.233,0,0,0-3.8-.392,7.1,7.1,0,0,1-4.364-1.678,10.075,10.075,0,0,1,1.9-.951s.5.336.727.5h2.35a60.343,60.343,0,0,0,7.048-.783c.448-1.175,1.063-.951,2.126,0H514.5c0,.559,0,1.231.783,1.454a22.384,22.384,0,0,0,3.357.783,59.361,59.361,0,0,1,6.265.615,28.8,28.8,0,0,1-.392,2.965h1.678c.56-1.231,1.678-.615,2.461-.951a3.748,3.748,0,0,1,4.531.783c.5.5.951.392,1.454,0s.615,0,.783.448a2.182,2.182,0,0,0,2.517.839,2.753,2.753,0,0,1,1.566.336h0a2.4,2.4,0,0,0-.336-3.021H537.1c0-.9.615-.727.951-1.119s-2.126-.839-2.573-2.238c.951-.559,1.958,0,2.909,0h3.077a1.119,1.119,0,0,0,0-1.846l-1.063-1.119-2.07.559c-.951-.783,0-1.4,0-2.405A3.133,3.133,0,0,0,534.7,128.4c-.336,0-.727.336-1.007,0a46.5,46.5,0,0,0-7.384,0,1.951,1.951,0,0,1-1.846-.671c-.447-.671-.392-.671-.727,0a2.629,2.629,0,0,1-2.573.783c-3.972,0-7.944,0-11.971-.336a43.807,43.807,0,0,1-9.346-1.008,10.464,10.464,0,0,0-2.681,0c-.336-.392-.727-1.063-1.231-1.678s-.783-.839-1.063-.727a1.119,1.119,0,0,1-1.51-1.007,3.579,3.579,0,0,1,0-2.014c0-.336.839-.839,1.063-.727,1.734.559,2.238-.727,3.021-1.734s.839,0,1.119.392l-.84,1.846c1.343.336,2.126-1.007,3.58-.839l1.231,1.343h0a4.867,4.867,0,0,1,4.643,0c.392-1.007,0-2.35,1.622-2.294.559-.9,1.063-1.734,1.51-2.573-.9-.783-1.622-1.007-2.014,0a2.181,2.181,0,0,1-2.573,1.79c-.783,0-1.622.727-2.517,1.007s-1.063,0-1.51-1.566h2.461l-6.545-5.986h0l.727-.727c.951-.951.951-.951,2.238,0h2.014a2.909,2.909,0,0,1,1.4-1.846c.671-.336,1.175,0,1.566,1.119h0c.615,0,1.175,0,1.231-.951v-1.678a17.344,17.344,0,0,0,2.238-1.175,6.208,6.208,0,0,0,1.454-1.51c.336-.559,0-1.231-1.343-1.454-.671.671.392,2.573-1.846,2.405a9.524,9.524,0,0,0-.559-2.35c-.224-.783-.615,0-.671,0-.559,1.287-.839,2.741-2.462,3.3l-1.734-1.958,2.461-1.566-1.678-1.007a19.755,19.755,0,0,1,.727-3.021,1.174,1.174,0,0,0-.392-.839,2.125,2.125,0,0,0-1.175.392v1.007c0,.28-.392.448-.727.783a73.408,73.408,0,0,0-.727-7.72l.9-1.678a12.285,12.285,0,0,1-1.287-1.119,1.51,1.51,0,0,1,0-2.629c.671-.447,1.51-.671,1.231-1.79a.837.837,0,0,1,.559-.783c.56-.168,1.343,0,.671-1.063s-.783,0-1.175,0l-1.231.727h0c-.336.951,0,2.238-1.51,2.629a4.7,4.7,0,0,1-3.972,0c1.51-4.307,1.51-4.307,1.007-5.93h-4.755c-1.454-1.51-1.454-1.51,0-2.8a5.6,5.6,0,0,0,0-.951c-1.063-2.126-1.9-2.35-3.8-1.063L485.3,78.337c0,.671.448.671.9.783l1.4.28c-.615,1.9-2.517,2.014-4.084,3.189l5.594.615a.973.973,0,0,1-.559.727,10.182,10.182,0,0,0-2.405.615,7.556,7.556,0,0,1,1.566,0,1.734,1.734,0,0,1,1.063.671c.336.5,0,.839-.5,1.063a5.872,5.872,0,0,0-.615.392c-.671.559,0,1.007,0,1.51h0c1.79,0,3.468-1.51,5.594-.5v1.958l-1.79.336v1.343l-5.091-1.063c-.951.5-.28,1.175-.5,1.678l-1.79.448v.448a4.755,4.755,0,0,1,4.028,1.343h3.133l-2.35,3.748-4.419-.783v1.007h.392c-.112,0,0-.336-.336-.5l-.671,1.175,2.573.448c0,1.4-1.007,1.231-1.566,1.678a4.7,4.7,0,0,1-3.3,1.063h-1.4a3.972,3.972,0,0,0-3.245.951,3.412,3.412,0,0,1-3.86.9,1.007,1.007,0,0,0-.671,0c-3.524,1.566-6.265-1.119-9.342-1.734-.392,0-.727-.5-1.622-1.287l3.524.615h3.245c-.951-.5-1.566-.783-2.182-1.175s-2.014,0-1.958-1.287h-2.517l-1.287,2.741a7,7,0,0,1-1.678-.28c-.783-.336,0-1.007,0-1.566l-2.07-.448c.727-1.79,2.349,0,3.468-1.007a9.288,9.288,0,0,1,3.58-.671l-.448-1.678c-.783-1.007-1.51.5-2.294,0a9.227,9.227,0,0,0-2.349-1.063l-1.175,2.629c-2.014.28-1.734-1.678-3.077-2.8s-3.357,0-5.594-.783c-.5,1.007.671,1.119.727,1.734a8.75,8.75,0,0,0,.336,1.51c-1.175,1.51-2.741,1.007-3.972,1.4l7.72,2.126L448.939,102c-.28.5-.392,1.231-.727,1.343s-.5-.839-1.119-1.119c-.559.9.56,1.622,0,2.517-1.454,1.734-3.133.9-4.867.392a4.475,4.475,0,0,1-2.8,1.007,27.942,27.942,0,0,0-2.909,0l1.4,1.566a1.454,1.454,0,0,1-.559,0c-1.231,0-2.405-1.063-3.916,0v2.573c-.336,0-.727.336-.951,0-1.119-.448-2.685,0-3.356-1.678h2.853v-1.063l-2.853-1.007c.392-1.231,1.343-.336,1.9-.9a1.424,1.424,0,0,0-.783-2.294v1.119c-2.8.5-5.594,0-8.559,0h0l.448,1.175-2.35.5a9.7,9.7,0,0,0-.392-3.412,10.291,10.291,0,0,0-4.531-.392l-.951,2.294a.727.727,0,0,1-.5,0,37.023,37.023,0,0,0-5.986-1.846,20.531,20.531,0,0,1-5.594-2.35,3.244,3.244,0,0,0-2.294-.336,14.487,14.487,0,0,1-3.133,0c-1.175,0-1.734-.671-1.287-1.79a7.837,7.837,0,0,1,.559-.9,2.3,2.3,0,0,0,0-.671c-1.287,0-2.07.951-3.133,1.175a4.306,4.306,0,0,1-2.014,0c-1.678-.448-3.245-1.175-4.923-1.678l-5.035-1.4-2.573-.615a2.238,2.238,0,0,1-1.678-1.622h0a13.485,13.485,0,0,0-3.748.559,7.72,7.72,0,0,0-3.8,3.356,3.945,3.945,0,0,0-.392-2.294c-1.007-.448-2.685.336-3.133-1.678l2.741-.336v-.559s-1.343,0-1.622-.448a8.167,8.167,0,0,0-4.811-2.685c.336-1.343,0-2.8,1.4-3.468l-.783-1.51c2.07-.783,4.419,0,5.93-1.79l9.566,2.573a22.93,22.93,0,0,0,2.741.336h0a14.041,14.041,0,0,0-7.272-2.965,18.632,18.632,0,0,1-4.811-.9l-12.587-3.245a47.269,47.269,0,0,1-10.573-3.636,5.15,5.15,0,0,0-1.287-.5l-5.874-.9a1.359,1.359,0,0,0-.783.28,2.741,2.741,0,0,0,2.294,2.182c2.293.448,4.531,1.063,6.769,1.678a14.374,14.374,0,0,1,2.8,1.4l1.231-.5a3.021,3.021,0,0,1,2.405,0c1.231.671,2.517,1.231,3.8,1.79h0c.783-.559.783-.559,1.9-.448l.28,2.126c-1.063.783-2.238-1.063-2.853.559l4.867,3.077c0,.448-.671,1.063-.56,1.454.5,1.343-.615,1.51-1.231,2.07.392.5,1.231,1.007.28,1.678l.9,2.014a5.592,5.592,0,0,0-1.622.559,4.3,4.3,0,0,0-1.063,1.175l-2.685-2.349v-.783a11.192,11.192,0,0,0,2.349,0,8.893,8.893,0,0,0,2.294-.671,2.629,2.629,0,0,0-3.021-1.063A4.084,4.084,0,0,1,351.49,86.9a2.518,2.518,0,0,0-2.014-1.231h0l.336.951s-.392.448-.5.392a36.649,36.649,0,0,1-5.314-.727c0-1.622,1.343-3.245-.839-4.7l-1.79.28-.448-1.231-4.2-.392a5.873,5.873,0,0,1-2.014-.448,4.7,4.7,0,0,0-5.594,0,9.509,9.509,0,0,0-1.063-1.063,1.231,1.231,0,0,0-1.958.727q0,.5,0,1.007a1.342,1.342,0,0,1-1.846,1.063,8.28,8.28,0,0,1-4.028-2.685c0-.671,0-1.231.951-1.119h0a5.034,5.034,0,0,0-3.133-1.958,23.212,23.212,0,0,1-3.245,1.007c-1.175-.336-2.294-.5-2.965.9a3.524,3.524,0,0,1-.727-3.972V72.072h0L309.255,74.2l-1.007-.671h0a8.557,8.557,0,0,1-4.643,1.4H301.2a12.4,12.4,0,0,1-3.916-2.182l-1.566-1.231V67.988c.9.9,1.4,1.734,2.629,1.343a7.1,7.1,0,0,1,2.573.5,4.363,4.363,0,0,0,.839-.9,1.175,1.175,0,0,0-.839-2.014,17.713,17.713,0,0,1-4.2-.336,1.9,1.9,0,0,1-1.007-.783c-.392-.727,0-1.063.727-1.343s0,0,0-.5c-1.9,0-3.636-.727-5.594.336a2.461,2.461,0,0,1-1.958,0,17.171,17.171,0,0,1-2.853-1.958c-.448,0-1.007.559-1.287.392a23.107,23.107,0,0,0-5.874-1.4,2.629,2.629,0,0,0-2.405.783c.336.783.671,1.455,1.063,2.406,1.566,0,3.524-.336,5.2.783l2.182-1.063a19.132,19.132,0,0,1,6.377,3.245h0V66.478a3.132,3.132,0,0,1,1.566,0,.951.951,0,0,1,.727,1.343c0,.336-.671.5-1.063.727a1.512,1.512,0,0,1-.671,0h0a26.181,26.181,0,0,1-7.608,2.126,18.715,18.715,0,0,0-1.454-2.35c-.392-.5-1.287-.615-1.511,0a2.014,2.014,0,0,1-1.9,1.119h-4.308l-1.4-2.294a7.105,7.105,0,0,1,0-3.748c.5-.671,1.175-1.231.448-2.35L271.383,62a5.6,5.6,0,0,1,0,4.14c-1.734,0-1.734,0-2.462-1.175s-.727-1.231-1.51-1.287l-3.8-.559c-.951,1.287.336,1.622,1.119,2.182a10.629,10.629,0,0,1-7.1,0l-.615,1.287h-.783a23.25,23.25,0,0,0-1.287-2.35,10.06,10.06,0,0,0-1.678-1.454c-.392,0-.951.5-1.231.336a17.4,17.4,0,0,0-5.258-1.622,5.258,5.258,0,0,1-1.231-.671c1.007-2.126,2.8,0,4.028-.783l1.454-3.133a3.636,3.636,0,0,0-.839-.559c-2.573-.839-2.965-.5-2.741,2.909l-1.287-3.021a10.017,10.017,0,0,1-1.958-.559,4.363,4.363,0,0,0-3.357-.392,13.146,13.146,0,0,1-4.2,0c-.448,0-.951-.336-1.287,0a2.909,2.909,0,0,1-2.965-.671,6.825,6.825,0,0,0-1.9-.559,7.273,7.273,0,0,1,1.343-5.147l-3.189-1.119-1.119,1.4a16.771,16.771,0,0,1,1.231,2.461,1.287,1.287,0,0,1-.839,1.678c-.559,0-1.175.5-1.566,0a1.343,1.343,0,0,1,0-1.287,5.931,5.931,0,0,0,1.231-2.853c-.783,0-1.51-.9-2.35.336s-2.014,1.4-3.021,2.07c-1.566-2.182-1.51-2.35.951-3.356l-3.692-1.063a1.063,1.063,0,0,1-.839-1.566,1.342,1.342,0,0,0-.559-1.063,10.569,10.569,0,0,0-2.685-.727,22.4,22.4,0,0,0-2.741,0c.448,1.4,1.958,1.007,3.021,1.9a7.666,7.666,0,0,1-1.007.9c-.5,0-1.454,0-1.4,1.063a1.51,1.51,0,0,1-.895,0,13.9,13.9,0,0,1-1.846-.9c-.447,0-.839-.9-1.342-.951a50.622,50.622,0,0,1-7.664-2.35h0v.783l.727.783s.9-.336.559.448l-.5-.559c-.392,0-.783,0-.727-.727-3.692.336-6.6-1.958-9.957-2.8a8.389,8.389,0,0,1-2.629-1.678,2.276,2.276,0,0,0-.336-1.063c2.014.615,3.692,1.231,5.594,1.678a16.78,16.78,0,0,0,3.357.615,35.47,35.47,0,0,1,6.545.839,61.537,61.537,0,0,0,8.895,1.846L209.9,42.312a25.9,25.9,0,0,1-3.8-1.622c-.839-.559-1.622,0-2.238,0s-1.007-1.231-1.622-1.734-1.678-.839-2.405-1.4a24.313,24.313,0,0,1-2.517-2.07,5.594,5.594,0,0,1-5.594-.839,1.225,1.225,0,0,0-.336-.839h3.524l-2.573-1.958L187.3,33.417c1.9,1.175,3.972,1.622,4.867,3.86a2.462,2.462,0,0,1-.5.9,1.51,1.51,0,0,1-1.958,0,10.292,10.292,0,0,0-3.86-2.238,6.545,6.545,0,0,0-4.755-1.846,5.594,5.594,0,0,1-4.475-2.238c0-.448-.951-.615-1.51-.839a3.021,3.021,0,0,1-2.014-1.678,1.9,1.9,0,0,1,2.405-.951c.839.336,1.678.783,2.517,1.175a7.72,7.72,0,0,0,4.2,1.566h0a1.286,1.286,0,0,0-.783-1.4c-.9-.392-1.79-.951-2.685-1.4h-.112a1.286,1.286,0,0,1,0,.671l1.958-1.454v-.727c0-.224.28-1.287.727-1.063a60.576,60.576,0,0,1,11.188,5.594,3.244,3.244,0,0,0,1.287.5,35.182,35.182,0,0,1,8.335,3.524c1.007.5.951.559,3.245,0-.392-.5-.56-1.119-1.007-1.343a19.7,19.7,0,0,1-2.909-1.175c-1.734-1.175-3.748-1.734-5.594-2.909a18.3,18.3,0,0,0-4.2-1.678c-1.119-.392-2.238-.671-3.636-1.063l1.287-.951a7.663,7.663,0,0,0,1.007-.839,9.609,9.609,0,0,0-1.175-.671c-1.846-.5-3.692-.783-5.594-1.343s-4.363-1.622-6.545-2.461l-1.678-.615a5.594,5.594,0,0,1-3.58-2.629s-.5-.448-.783-.727l-.839.727c-.671,0-.392-.9-.727-1.231l-6.937-2.517a15.722,15.722,0,0,0-2.965-1.063c-1.454,0-1.958-1.51-3.133-1.958s-2.629,0-3.58-1.454c1.231-1.734-.559-2.629-1.343-3.692s-2.07-.559-4.419.9a6.21,6.21,0,0,1,0-4.979L145.349.188c-1.231,0-.5,1.231-1.063,1.734a9.957,9.957,0,0,1-3.692-1.51c-1.007-.671-1.063-.559-2.237.615a5.986,5.986,0,0,0,5.93,4.587,6.545,6.545,0,0,0,3.58,4.531c.336,0,.5.727.727,1.119h0A7.72,7.72,0,0,1,143,10.817a2.965,2.965,0,0,0-2.573,0l.839,2.07c-.727.5-.9,0-1.119-.392a1.271,1.271,0,0,0-1.734,0h0a3.3,3.3,0,0,1-3.636,0c-.671-.448-1.4-.783-2.014-1.119-.783.615-.5,1.287,0,1.51s.9,1.51.9,2.461l7.328,4.867a3.687,3.687,0,0,0,0,.615l-2.238.447c-.9-.671-.5-2.07-1.846-2.126h0v1.007c-1.678,0-1.454-1.958-2.8-2.517s-1.79-1.734-2.629-2.629c-1.79,0-1.79,0-1.846,2.461l-1.678-1.343c-.9-.783-1.846-1.4-3.077-.448,0,0-.783-.336-1.175,0a4.646,4.646,0,0,0-1.175.336c0,.392,0,1.063.392,1.119a3.972,3.972,0,0,1,2.965,3.189l2.685,1.342c0-1.007-.783-1.622-1.287-2.35s0-.839,0-1.343c1.678.448,2.238,1.51,2.909,2.909l-1.622.727c-.448.336-.951.951-1.343.9a9.9,9.9,0,0,1-5.594-2.07,11.188,11.188,0,0,1-1.4-2.238c-1.175.727-.839,2.07-1.454,3.021l6.377,3.692.727.671c-.5.448-.783,0-1.063-.28-1.343-.559-2.8-.951-4.14-1.622a9.677,9.677,0,0,0-3.748-.951c.5.783.671,1.287.951,1.4s1.958.671,2.909,1.119,1.343.448,1.287,1.343a4.028,4.028,0,0,1,4.14,1.119,23.446,23.446,0,0,1,2.237,3.021v.951c.839,0,1.734-.559,2.685,0-1.119.783-1.846,0-2.573-.336a10.236,10.236,0,0,1-3.3-.9c-1.454-.951-3.133-1.958-2.965-4.14l-1.175,1.9a8.615,8.615,0,0,1-3.748-1.175,5.09,5.09,0,0,0-3.916-.615,72,72,0,0,1,7.776,3.972,2.853,2.853,0,0,0,.951.392,11.188,11.188,0,0,1,6.657,4.2c0,.671-.671.336-1.231.392s0,1.454-.336,2.405h-1.231a26.58,26.58,0,0,1-2.238-2.126,7.5,7.5,0,0,0-1.678,5.035h-.839c-.727-1.343-1.51-2.182-3.357-1.734s-3.133-.727-4.587-1.454l-3.021-1.678.448-1.175-1.9-1.007A110.742,110.742,0,0,1,97.24,28.047a11.806,11.806,0,0,0-1.9-.9l-4.419-1.343h-.448c-.056,0-.559,1.063-1.287.839s-.727-.839-.56-1.454a1.562,1.562,0,0,0,0-.448L82.08,21.725A4.084,4.084,0,0,1,80.513,21a31.5,31.5,0,0,0-9.454-4.587,8.614,8.614,0,0,0-2.573,0,2.066,2.066,0,0,0-.448-1.51.727.727,0,0,0-1.119-.392c-.392,0,.28,1.343-.783.951s-.727-.783-1.119-1.175h0V13.5h0A137.692,137.692,0,0,0,52.375,6.789l1.454,2.126s-.392.336-.559,0c-1.119,0-2.405,0-2.909-1.51L51.2,5.95s-.28-.336-.392-.336a8.558,8.558,0,0,0-3.748,1.007,8.054,8.054,0,0,1,1.007,5.035,24.883,24.883,0,0,0-2.461-1.231c-1.678-.783-3.412-1.4-5.035-2.294A18.457,18.457,0,0,1,38,6.174c0,.392-.5.783-.392.9a5.594,5.594,0,0,0,3.133,2.573,1.51,1.51,0,0,1,1.4,1.79c-1.4,0-2.405-1.678-3.972-.727,0,.951.9,1.175,1.175,1.846a20.955,20.955,0,0,1,.671,2.405,16.781,16.781,0,0,1,5.594,2.182c1.678,1.063,1.734.951,4.028.671,1.007,2.461,3.468,3.3,5.594,4.475s3.748,1.9,5.594,2.909a9.284,9.284,0,0,0,1.51.727c2.126.615,4.419.671,5.986,2.517,2.8,0,4.475,3.021,7.272,3.3a9.342,9.342,0,0,0,5.594,1.9h.671a10.63,10.63,0,0,0-4.084-2.685c-2.014-.9-3.972-1.9-5.986-2.741-3.972-1.678-7.608-3.972-11.188-5.594a3.352,3.352,0,0,0-.615-.336c-1.175-.5-2.349-.951-3.468-1.51A39.762,39.762,0,0,1,53.1,18.7V17.474a4.534,4.534,0,0,1,1.175,0,45.7,45.7,0,0,0,9.454,4.475c.615,0,1.175.727,1.79,1.007a2.966,2.966,0,0,0,1.678.28c2.909-.615,5.147,1.175,7.608,2.07.727.28,1.063,1.454,1.678,2.294a8.72,8.72,0,0,1,1.958,0s.28.839.392,1.287l3.189,1.231c0-2.126,0-2.126-.671-3.524.671-.448,1.175-1.063,2.126-.448a32.3,32.3,0,0,0,3.133,1.51A76.122,76.122,0,0,1,96.848,32.8a1.039,1.039,0,0,0,.392.783,2.014,2.014,0,0,1-2.405,0,6.992,6.992,0,0,0-2.07-1.231,10.062,10.062,0,0,0-2.238,0c-1.454-2.853-4.531-2.07-6.881-3.58,0,1.566-.9,1.4-1.734,1.454.28,0,.5.615.783.615,1.287,0,2.573,0,3.524,1.007h.951c1.734,0,1.678,0,2.07,1.846,0,.5.615.9.9,1.287l3.356-.839a24.669,24.669,0,0,0,10.237,4.084,4.14,4.14,0,0,0,4.643,4.531v-.9h.9a5.6,5.6,0,0,1,1.063,2.965c-1.175,0-2.405,0-3.077,1.343l3.245,1.734c0,.839-2.014.839-.951,2.126h0a6.656,6.656,0,0,0,4.755.392,2.349,2.349,0,0,1,1.958,0,80.148,80.148,0,0,1,9.23,4.14.8.8,0,0,1,.9.5c1.343,2.349,3.8,3.189,5.93,4.531a6.988,6.988,0,0,1,1.343,1.51l.447.336h0L133.769,61a9.063,9.063,0,0,1-5.091-1.119,5.035,5.035,0,0,0-2.965-.783,3.692,3.692,0,0,1-3.245-.727l-8.951-5.147a27.4,27.4,0,0,1-3.748,1.063,4.419,4.419,0,0,1-2.741-.559,7.273,7.273,0,0,0-4.979-1.231h0c0,1.231,1.119,1.734,2.014,2.182,1.734.951,3.524,1.734,5.258,2.685.336,0,.448.671.671,1.063a5.6,5.6,0,0,1-1.175.5,12.867,12.867,0,0,1-2.07,0h0V60.6a3.86,3.86,0,0,1-3.58,0l-.5-2.182-1.566.951a28.526,28.526,0,0,0-7.608-4.419,13.385,13.385,0,0,1-1.566-.727,15.105,15.105,0,0,0-5.986-2.8,12.8,12.8,0,0,1-1.286-.559l-4.475-1.958a9.951,9.951,0,0,1-2.238-.951,4.812,4.812,0,0,0-2.573-.951,5.147,5.147,0,0,1-3.8-2.8,13.339,13.339,0,0,1-.951-1.734h-3.58c.727-.783,1.343-1.119,1.51-1.678a9.008,9.008,0,0,0,0-2.573,17.118,17.118,0,0,1,3.245,1.51A42.449,42.449,0,0,0,78.5,42.759a4.139,4.139,0,0,0,1.511,0,3.077,3.077,0,0,0-2.238-1.734,13.6,13.6,0,0,1-3.524-1.678,81.891,81.891,0,0,0-9.622-4.923,34.006,34.006,0,0,1-3.412-1.846,37.82,37.82,0,0,0-8.279-3.692A7.44,7.44,0,0,1,47.956,24.3a3.361,3.361,0,0,1-.336-.615s0,0,0-.559h2.909l-3.021-2.35-2.182,1.287c-4.308-1.231-4.308-1.231-5.594,0,.783.951,2.014.336,2.461.671,1.343,1.287,2.294,2.294,3.356,3.245a2.629,2.629,0,0,1,.727,2.8,1.567,1.567,0,0,1-1.343,1.4,10.349,10.349,0,0,1-4.531,0,3.411,3.411,0,0,0-1.678,0c-1.9,0-2.35,1.4-1.119,2.8a12.364,12.364,0,0,0,1.79,1.622l.951-.392a4.7,4.7,0,0,1,5.874.336c.392.336,1.063.336,1.622.615A3.581,3.581,0,0,1,50.25,37.78l-2.909,2.294-1.79-1.231.783-1.734c-.783,0-1.175-.727-1.454-.727-2.182,0-3.692-1.287-5.594-1.846.448,1.175.839,2.405,1.287,3.692-1.4.727-2.741,0-4.084,0-.336,0-.727-.559-.9-.951s-.392-1.343-.671-2.238a11.189,11.189,0,0,0-3.8-1.119c-1.454,0-2.517-1.175-4.084-1.175v2.8H25.076v.951a26.906,26.906,0,0,0,2.35,2.182,5.091,5.091,0,0,1,4.251,0c.5,1.566-1.231.951-1.622,1.678s0,.5,0,.559c2.126,1.175,2.126,1.175,5.594.448V39.906l1.51,1.287,2.573-.9A10.522,10.522,0,0,1,40.8,41.752a4.7,4.7,0,0,0,3.245,2.965c.28,0,.727,0,.839.5a6.936,6.936,0,0,0,5.594,3.8,8.949,8.949,0,0,1,3.3,1.734,29.874,29.874,0,0,0,6.377,3.636,42,42,0,0,1,5.258,3.356c.671.392,0,1.007,0,1.678A11.191,11.191,0,0,0,67.088,61a13.264,13.264,0,0,0,1.79.839,27.969,27.969,0,0,1,6.6,6.1.826.826,0,0,0,.839-1.175,6.159,6.159,0,0,0-.839-1.454h0c1.622,0,2.685,1.287,4.419,1.51L78.612,69c1.287,1.622,0,4.084,1.566,5.594a2.909,2.909,0,0,1-3.356.392A10.125,10.125,0,0,0,71.9,73.695h0l5.594,2.517a10.572,10.572,0,0,1,4.7,3.356c-.448,1.231-1.287,1.063-2.07.839a27.524,27.524,0,0,1-7.328-4.14H68.71a30.037,30.037,0,0,0,6.321,4.811h0l2.909,1.958v1.51c1.454,0,3.3-1.175,4.307,1.119l-1.958.783c.448.727,1.119,1.343,1.175,2.07,0,2.405,0,2.405,2.461,1.9v.9a2.969,2.969,0,0,1,0,.727,4.251,4.251,0,0,0,3.412,0c.615,0,1.119,0,1.4.9l-1.287,1.4,1.79,1.566a1.622,1.622,0,0,0,2.406,0,16.1,16.1,0,0,1-2.014-1.846,1.454,1.454,0,0,1,0-1.287.727.727,0,0,1,1.175,0c1.566,1.4,3.748,1.9,5.594,3.245h.336a85.358,85.358,0,0,1,9.007,4.028c.559-1.231,1.231-1.846,2.629-1.454q2.5.394,5.034.56c.783,2.405-1.343,4.811,0,7.272l.951-.392c.727-.392,1.4-1.007,2.238,0s0,1.287,0,1.958a23.434,23.434,0,0,0,.559,3.58c.727-.392,1.4-.5,1.622-.9s0-1.231-1.119-2.461c.671-.727,1.51-.5,2.405-.448l1.734,4.587a1.4,1.4,0,0,1-2.07,1.007,5.6,5.6,0,0,0-3.412-.448,5.926,5.926,0,0,1-1.4,0,4.867,4.867,0,0,1-4.084-2.405,3.8,3.8,0,0,1-3.916,0,3.916,3.916,0,0,0-2.573-.783s-.559-.839-.951-1.566l-4.308-.5c-1.566-.9-1.79-3.021-3.468-3.8h0c0-.9-1.175-.559-1.678-1.007a19.189,19.189,0,0,1-1.342-1.734,20.421,20.421,0,0,1-2.965-.839c-.671-.336-.839-1.454-1.79-1.454h0v1.007c-.448.783-1.119,0-1.79.559s0,.727.448.951a4.475,4.475,0,0,0,1.678.5c1.063,0,1.287.783,1.454,1.566a31,31,0,0,1-5.594-.336,12.363,12.363,0,0,1-2.8-1.175c-1.231,1.734,1.063,1.678,1.4,2.909a2.629,2.629,0,0,1-1.9,1.622c-1.007-1.119-2.685-1.566-3.58-3.021a1.678,1.678,0,0,0-.9-.448,35.239,35.239,0,0,0-4.2,0c-.559,0-1.119.727-1.846,1.231l2.909,2.182a19.693,19.693,0,0,0-4.2,1.287c-1.343.783-2.8.392-4.363.727a5.589,5.589,0,0,0,0,1.9,16.8,16.8,0,0,0,1.007,2.629c.392.839.783,1.678,1.287,2.573l-1.287,1.175s0,.448.28.448a16.782,16.782,0,0,1,4.979.727c1.007,0,1.958,1.119,3.189,1.958l-1.79,1.4c.783,2.35-1.79,1.846-2.573,2.909s-1.287,0-1.958.336h0c.9,1.007,2.685,1.007,3.021,2.629,0,0,.615.336.9.448a41.229,41.229,0,0,1,8.615,3.916c.615.336,1.343.951,1.9.783,1.958-.448,2.294,1.79,3.8,2.126.28,0,.448.951.615,1.51a3.748,3.748,0,0,0,1.958,2.182,24.727,24.727,0,0,0,9.566,3.133,36.745,36.745,0,0,1,8.223,2.909c3.3,1.454,6.489,3.245,9.79,4.643,1.734.727,3.468,1.343,5.146,2.126a8.833,8.833,0,0,1,1.622,1.231h0a6.435,6.435,0,0,1,1.566.448,21.156,21.156,0,0,1,2.238,2.238s.392.727,0,.9-.727.671-1.063.671a11.58,11.58,0,0,1-7.384-2.182,5.594,5.594,0,0,1-4.979-.336c-.392-.336-1.119,0-1.678-.336a4.416,4.416,0,0,0-1.231,0l7.776,3.524c-1.454.392-1.343,1.622-1.678,2.517a3.128,3.128,0,0,0,.671,2.853,3.469,3.469,0,0,1-2.8,0,25.62,25.62,0,0,0-3.692-1.9,20.366,20.366,0,0,0-3.916-.671l-.615-1.007-2.405,1.287a14.648,14.648,0,0,1-1.063-2.07,5.146,5.146,0,0,0-3.916-4.028c-.9,0-1.622-1.231-2.405-1.9,0,1.231,0,1.231-1.343,1.454,0,.727.783.783,1.343.951a26.347,26.347,0,0,1,2.909,1.175,2.1,2.1,0,0,0,.448,1.119,25.62,25.62,0,0,1-5.986-2.182l1.4-.951c0-1.287,0-1.343,1.343-1.51.559-1.4,1.007-1.734,1.846-1.454s1.734.671,2.629.951a17.791,17.791,0,0,0,2.07.336c-.392-1.734-1.846-.839-2.8-1.51V148.6s-.392-.392-.56-.392c-2.741,0-2.741,0-5.035-2.238l-4.587-.727c-.5.448-.448,1.51-1.622,1.454-.336,0-.727.783-1.119,1.007s-1.007.336-1.063-.392c0-1.79-1.622-2.294-2.965-3.021-.5.839,0,.783.448,1.007a8.838,8.838,0,0,1,.839.671,9.287,9.287,0,0,1,.671,1.455,3.973,3.973,0,0,1-1.454,0,28.418,28.418,0,0,1-10.517-5.2v.336c0,.392.727.783,0,1.063a.9.9,0,0,1-.9,0c0-.559,0-.783.671-.951H73.3a55.937,55.937,0,0,0-6.433-2.853c0,2.182,2.07,1.734,3.245,2.629-.336,0-.615.559-.839.5a11.188,11.188,0,0,1-2.685-.671l-8.391-4.531a5.313,5.313,0,0,0,.392,2.517,6.714,6.714,0,0,1,0,1.063,9.454,9.454,0,0,1-4.7-1.51c-.727-.392-1.4-.9-2.126-1.231a3.914,3.914,0,0,0-1.4,0,7.72,7.72,0,0,0,5.314,3.692,12.7,12.7,0,0,1,4.419,2.014,15.1,15.1,0,0,0,6.042,2.517h0c-.559-1.119-1.846-1.343-2.8-1.958s-1.51-.727-1.119-1.958a27.98,27.98,0,0,0,3.468,1.119A10.463,10.463,0,0,1,69.1,145.8a33.559,33.559,0,0,0,4.14,1.622h0l.28-1.007h.615c1.566.671,3.189,1.4,4.755,2.182a1.567,1.567,0,0,1,.559,1.119c0,.5,0,1.063.5,1.119,2.014,0,2.07,1.454,1.958,3.021a4.76,4.76,0,0,0,0,.839l3.525.392a3.021,3.021,0,0,1,1.4.9,2.8,2.8,0,0,0,2.685,1.287,4.476,4.476,0,0,1,2.629.839l3.356,1.9,1.175-.951a7.944,7.944,0,0,1,4.475,1.79,20.53,20.53,0,0,0,8.335,4.14,7.719,7.719,0,0,1,2.126,1.119v.9a.671.671,0,0,1-.615,0,3.8,3.8,0,0,1-1.622-.615,8,8,0,0,0-4.643-1.958c-.28,0-.839.448-1.231.783s0,.839.336,1.007h0s.336-.392.5-.392a5.091,5.091,0,0,1,3.245.839c.727.5.336.951-.392,1.287l1.9.783.839-.9a1.018,1.018,0,0,1,1.119.615,8.224,8.224,0,0,0,4.419,3.189c.615,0,.727.9.448,1.51s-.448.783-.615,1.175c-1.007.336-1.51-.783-2.573-.448a7.551,7.551,0,0,1-3.021-.559l-2.685-.727h-.336c.671.448,1.287.951,1.958,1.343l3.077,1.678-1.287,3.468a75.243,75.243,0,0,1-7.384-2.405l.671-1.175h0c-.448-1.175-1.734-1.063-2.461-1.734a2.853,2.853,0,0,0-2.909-.559,15.956,15.956,0,0,1-1.958-.448,15.552,15.552,0,0,1-5.594-2.741c-.839-1.846.783-2.629,1.231-3.86H90.079l-1.063,2.741c-.392,0-.727.336-1.063,0a49.126,49.126,0,0,1-6.321-2.07A12.084,12.084,0,0,1,78,164.207,11.188,11.188,0,0,0,72.4,161.13a6.153,6.153,0,0,1-1.79-.951,2.787,2.787,0,0,0-.28-1.119c2.685,0,4.979,2.126,7.72.839-.671-.336-1.287-1.063-1.958-1.007a13.37,13.37,0,0,1-5.594-1.566l-6.433-2.517a6.415,6.415,0,0,0-.392-2.573L61.94,151.9h0l-.839.615H60.43a4.587,4.587,0,0,0-3.412-2.182,68.2,68.2,0,0,0-10.629-2.461c-.5,0-.951-.559-1.4-.783,0-1.175.839-1.231,1.51-1.119a14.769,14.769,0,0,1,2.126,1.007h0a5.469,5.469,0,0,0-.839-2.126,2.853,2.853,0,0,0-2.853,0,3.468,3.468,0,0,1-2.349.5,2.35,2.35,0,0,1-2.35-1.287,2.8,2.8,0,0,0-2.294-1.846,40.854,40.854,0,0,1-3.972-1.287c1.9-1.175,1.9-1.175,3.468-.951s3.468.448,5.258.559c.28,0,.615-.5.951-.783-.615-1.007-1.566-.727-2.238-1.063a13.154,13.154,0,0,0-2.238-1.007,1.678,1.678,0,0,0-1.566.336c-1.063,1.063-1.9.559-2.741,0a17.89,17.89,0,0,1-1.4-1.51l1.175-1.119c-.336-.727-1.007-.392-1.51-.448a9.352,9.352,0,0,0-1.9,0,6.271,6.271,0,0,1-.5,1.231.671.671,0,0,1-1.119,0,6.756,6.756,0,0,1,0-1.007c-.615-1.734-1.51-3.133-3.748-2.853H24.684c0-1.287,1.175-2.685-.28-3.916a3.244,3.244,0,0,0-3.412,1.79,2.237,2.237,0,0,1-2.406.951,1.566,1.566,0,0,1-1.119-.727,27.969,27.969,0,0,1-1.231-3.636,2.294,2.294,0,0,1,0-1.343,1.511,1.511,0,0,0,0-1.958c-.671-.727-.448-1.4,0-2.238s0-.9-1.231-1.566a13.706,13.706,0,0,0-1.343,5.93,3.971,3.971,0,0,1,0,3.3,7.1,7.1,0,0,0-.336,1.007v2.573l2.126.615-1.231-2.573a2.773,2.773,0,0,1,.839-.5,1.175,1.175,0,0,1,1.678.727,22.353,22.353,0,0,1,.5,2.629l1.678-.9h0l1.119.783c-1.734,1.343-1.846,1.51-2.35,1.231s-2.238.336-3.356,0a2.293,2.293,0,0,0-1.9.559,21.256,21.256,0,0,1-2.741,1.454,2.406,2.406,0,0,1-2.853-.5h0c-.392.615-1.007,1.175-1.063,1.79A3.245,3.245,0,0,1,3.2,141.047h0c.392,2.014.727,4.028,1.119,6.1a1.622,1.622,0,0,0,2.35-.5,4.867,4.867,0,0,1,3.972-2.35c.615.783,0,1.343,0,2.014s-.28,1.79.448,2.238a1.9,1.9,0,0,1,.839,2.126,6.208,6.208,0,0,1-1.119,2.461,6.713,6.713,0,0,1-1.9,1.287,6.393,6.393,0,0,0-.336.839C8.237,159,8.237,159,4.545,158.109H3.706c0-1.007,1.343-1.958.615-3.189a.723.723,0,0,1-.559-.336c-.224-.336,0,0-.336.5-.615,2.014-.615,2.014-2.853,1.678a.392.392,0,0,0-.336,0c-.559.615,0,1.007.336,1.454a4.2,4.2,0,0,1,.783,2.685,3.3,3.3,0,0,0,1.063,2.8,6.937,6.937,0,0,1,1.9,2.965,2.294,2.294,0,0,0,2.517,1.51,6.153,6.153,0,0,0,5.594-3.077c.615-1.175,1.958-1.51,2.8-2.461-2.07-.727-2.07-.727-3.077-2.461l2.461-2.629,1.566,1.4h.559c1.622-1.4,2.014-1.4,3.8-.392a4.253,4.253,0,0,0,1.343.392l-.336-1.231a6.769,6.769,0,0,1,6.769-.783l.559-1.287,3.748-.615h.727c1.622,1.4,3.636,0,5.594.839a29.191,29.191,0,0,0,5.091,1.4,5.6,5.6,0,0,0,1.343,0h3.133c.336-.5.56-1.287,1.063-1.622a2.126,2.126,0,0,1,1.622,0,2.126,2.126,0,0,0,2.573,0,.448.448,0,0,1,.336,0,8.789,8.789,0,0,1,1.287.5c1.79.951,4.251.336,5.594,2.35.336.559.559,1.622,1.007,1.734,3.748.783,6.433,3.748,10.125,4.643a53.471,53.471,0,0,1,7.664,3.077c0,.839-.56.727-1.007.615a9.173,9.173,0,0,0-5.594-.615l3.524,1.231c2.014.671,3.972,1.4,6.042,1.958A8.5,8.5,0,0,1,87.785,174a2.4,2.4,0,0,0,2.238.783v-1.51l2.126,1.063v.448H89.855a2.238,2.238,0,0,0,2.238.727,7.217,7.217,0,0,1,3.748.783,18.518,18.518,0,0,0,2.294.783,17.342,17.342,0,0,1,3.916,1.566A76.742,76.742,0,0,0,112.9,183.73a30.211,30.211,0,0,1,4.811,2.853c-1.063.783-1.51-.5-2.349-.392a14.376,14.376,0,0,1-2.238,0l2.405,1.958-2.126.5,4.811,1.846a2.634,2.634,0,0,0,0-.783,8.643,8.643,0,0,0-.28-.951,2.462,2.462,0,0,1,2.685,0,35.241,35.241,0,0,0,5.594,2.014l.671.671-.448.559-3.58,1.343c-1.566,0-2.238,1.51-3.356,2.517l-1.4-1.678c-.839,0-1.622,1.007-2.741.392a20.92,20.92,0,0,0-3.3-1.175c-.447,1.454-.447,1.454,1.063,3.8-1.287,1.343-2.853.783-4.251.448s-2.909-.951-4.363-1.4h0c-.56,1.79-.671,2.07-1.958,1.79a3.86,3.86,0,0,0-3.468.951,1.622,1.622,0,0,1-.783,0c-.336-1.287-.671-2.629-.951-3.972h0L95,194.079a6.462,6.462,0,0,1-.28,2.294H93.155l-.448-2.517-4.308-.839c.783-1.846.783-1.846,2.07-1.51h0l.5-.9c-3.8-.671-3.972-.559-5.091,2.573.783.392,1.622.727,2.405,1.175s1.51.783,1.454,1.79c0,0,2.573,2.629,2.629,2.685l1.566,1.958A7.5,7.5,0,0,1,98.3,202.3h0a10.46,10.46,0,0,1,3.692,2.238,5.593,5.593,0,0,1,1.063-1.231,5.146,5.146,0,0,1,1.51-.9,10.409,10.409,0,0,1,1.678,0l-.615,3.021h1.79a27.518,27.518,0,0,0,2.294-1.734c1.566.448,3.133.839,3.86,2.573h0l4.643.392c0-.559.5-1.175.727-1.79a14.6,14.6,0,0,0,1.454,3.412c.783,1.007-.671,2.517,1.119,3.077.671,0,.392-.9.615-1.343a2.293,2.293,0,0,1,1.063-1.231V207c0-.727,1.734,0,2.294.392a2.909,2.909,0,0,1,1.063,2.07c0,.783-.336,1.566.559,2.126a2.517,2.517,0,0,0,2.35,0,3.189,3.189,0,0,1,.9,0,9.159,9.159,0,0,0,.392,1.566,10.086,10.086,0,0,1,0,1.846l-3.245-.615-.615,1.287H122.86l.392,1.79c-.671.783-2.294.839-2.014,2.461h0a1.175,1.175,0,0,1,1.342.9,5.872,5.872,0,0,1-.391,3.245c-.951,0-1.511,0-1.622-.951a18.082,18.082,0,0,1,0-2.461h0a5.594,5.594,0,0,1-1.4,0c-1.231-.336-1.9.559-2.909,1.287l-1.119-3.86a4.979,4.979,0,0,0-4.587-.951l.783,2.07a10.755,10.755,0,0,1-2.853-.559c-.839-.224-.448-.559.448-1.343a2.8,2.8,0,0,1-1.231-4.251,24.291,24.291,0,0,0,.9-2.629,7.118,7.118,0,0,0,.336-1.007,1.231,1.231,0,0,0-1.678-1.231,7.664,7.664,0,0,0-1.287,1.063c-1.231,1.287-2.573.951-3.356-.783a2.182,2.182,0,0,0-.448-.615l-1.4,1.9-1.287,1.734,2.853,1.734s.448-.5.448-.783-.671-1.007.336-1.51l1.79,1.454a13.44,13.44,0,0,1-.615,3.189c-1.51,0-1.343-1.51-2.238-1.9H98.917l-2.909-2.741a19.133,19.133,0,0,1-2.294,0,4.139,4.139,0,0,0-3.468,1.119c-.392.336-.615.727-1.119.5a1.118,1.118,0,0,1-.559-1.454,1.9,1.9,0,0,0,0-.9c-1.231,0-1.622,1.958-3.077,1.287.783-3.356.783-3.356,2.294-4.2-.28,0-.5-.559-.727-.559s-1.175,0-1.063-.951a1.231,1.231,0,0,1,.839-.9,4.866,4.866,0,0,1,4.2.559,8.327,8.327,0,0,0,1.119.839c1.007.671,2.35,0,3.3.951s1.454,1.4,2.238,2.182l1.231-2.461a19.017,19.017,0,0,1-2.8-.559c-.671,0-1.678-.5-1.79-.951s-1.231-1.175-1.9-1.678-1.454-1.566-2.629-.615a1.4,1.4,0,0,1-1.063,0,41.234,41.234,0,0,0-8.335-.671H79.73c-1.175,1.231-1.175,1.231-2.405.559h0l-.9.615-1.734-1.119a9.79,9.79,0,0,1-9.342-.559l-2.294.839a35.147,35.147,0,0,1-3.245-1.51c-.727-.448-.783-1.119,0-1.734h0a4.7,4.7,0,0,0-1.007-.839H57.8l.559,1.846c-1.343,0-2.349-.839-3.412-.951v-2.741a1.32,1.32,0,0,0-1.9.559,4.7,4.7,0,0,1-2.182,2.853L49.3,199.282h-.671l.28-.336h.615l.5-2.629a3.8,3.8,0,0,0-3.916-.392,2.182,2.182,0,0,1-2.35-.336c-.559-.448-1.007-.951-1.51-1.4-.5.615-.839,1.4-1.846,1.287s-1.175,0-1.231.783h0l3.357.615h0c.336.839.615,1.622,1.007,2.741a5.926,5.926,0,0,1,1.175.783,1.175,1.175,0,0,0,1.51,0,1.119,1.119,0,0,1,1.566.28c1.175,2.014,3.245,1.958,5.091,2.294s1.734.559,1.9,1.622h0l1.4-1.287c1.454.727,2.965,1.343,4.363,2.126a6.992,6.992,0,0,0,4.867,1.119l1.51-1.231c.951.951,0,1.678,0,2.517,1.063.671,3.021,0,3.412,1.9,0,0-.392.392-.5.392-1.119,0-2.238-.783-3.356,0-1.175-.615-2.8.671-3.692-.9-1.231,0-2.517,0-3.245-1.454H55.4a13.649,13.649,0,0,0-5.594-1.343,49.448,49.448,0,0,1-5.594-1.79,5.091,5.091,0,0,0-5.314,0H37.886c0,.839.559,1.343,1.734,1.9H37.1c.336,0,.671.727,1.007.727a8.727,8.727,0,0,1,5.2,1.79,5.594,5.594,0,0,0,3.58,1.007,27.974,27.974,0,0,1,4.979.951,1.343,1.343,0,0,1,.9.5,2.909,2.909,0,0,0,3.245,1.51c1.9,0,3.133,1.231,4.531,2.238l.783.727a6.992,6.992,0,0,1,6.377,1.846c-1.51,1.622-3.3-.336-4.531.5a9.464,9.464,0,0,1,0,2.182c-.447,1.678-1.063,1.958-2.8,1.119a1.147,1.147,0,0,0-.448-.783,9.844,9.844,0,0,0,1.175-2.294,13.535,13.535,0,0,0,.336-2.629l-.783-.783c-.56.392-1.287.615-1.231,1.566s0,1.343,0,1.79-2.405,0-2.685,1.622H52.99s-.448-.559-.336-.783a2.406,2.406,0,0,1,.783-1.063c.615-.448,1.287.615,1.9,0a6.152,6.152,0,0,1,1.4-.951,5.594,5.594,0,0,1,1.007,0h0l-1.9-1.734-4.475,3.468c-1.79,0-1.958-1.51-2.8-2.405a2.741,2.741,0,0,0-2.685,1.231,17.343,17.343,0,0,0,.895,6.545c.727,0,1.063,0,1.343-.727s1.9-1.007,2.8-1.231,2.238,0,3.412-.615a10.742,10.742,0,0,1,3.748.28c.392,0,.671.671.9,1.007s0,.448,0,.615H58.64l-1.9-1.175v1.846h1.9l.615,1.51s-.392.448-.5.448a5.6,5.6,0,0,1-2.126,0c-.951-.392-1.454,0-2.07.559s-.671,0-1.063,0a4.027,4.027,0,0,0,.615-.839.783.783,0,0,0,0-.615,3.8,3.8,0,0,0-2.965.727v.727l1.9.727a1.957,1.957,0,0,1,.951.951c.392,1.51,1.958,1.734,2.853,2.741s2.182.671,3.412.615c2.517-.9,3.692-.671,6.321,1.4a5.594,5.594,0,0,1-4.2-.615C61.157,232.4,60.43,232.175,59.647,231.9ZM170.913,20.1a.729.729,0,0,1,0-.336h0l-.336.336v.951h0ZM63.339,37.613l.839-.783c-1.79-.9-1.79-.9-3.021.727h0c-2.741-.5-2.741-.5-3.189-2.629a2.965,2.965,0,0,0,2.573-.336h0c-.336,0-.559-.727-.951-.951L54,30.788a.839.839,0,0,1-.392-1.175h-.056a14.154,14.154,0,0,1,6.209,2.741,7.159,7.159,0,0,0,1.9.783,20.967,20.967,0,0,1,2.461,1.343l2.294,1.343c-.448.392-.671.727-.951.839a5.591,5.591,0,0,1-1.4,0l-1.007.951V38.4a7.947,7.947,0,0,1,1.734.336.839.839,0,0,1,0,1.454l-1.9-1.846a2.906,2.906,0,0,1,.448-.727Zm74.289,3.58ZM90.358,56.017V54.954H89.352l.951.336v.839c0,.336,0,.727-.448,0Zm26.908.447c.336,0,.615.336,0,.671l-.392-.448c-.336,0-.615,0,0-.615ZM488.21,135.285ZM93.1,138.027l.28.392h-.5l-.392-.671Zm428.675,73ZM60.766,225.8ZM539.4,250.635ZM218.966,318.38c.9,0,.448.448,0,.727s-.839.783-1.678,0h1.79v-.839ZM395.8,367.664v-.951h-.559l.448.336c.615,0,.727.5,0,.727h0Zm-40.333,4.2s0-.727.392-.392l-.5.336h0Zm7.72,4.307h0l-.727-.9h.112ZM478.42,387.355h0l-.28-.28h0ZM462.869,106.979l.448.336-.392-.392h0Zm-335.086,1.4c.559,0,1.287,0,1.343.727h0c-.727,0-1.175,0-1.287-.783Zm213.47,241.889h1.51v-.392c0-.448,0-.839.9-.727a.616.616,0,0,1,.336.5c0,.727-.559.5-.951.559h-.28c-.448,1.063-.559,1.063-1.343,0h0Zm28.977,24.67h.783l-.28.559-.336-.615h0ZM335.547,106.923l-1.007-.392s.28-.392.448-.392a.782.782,0,0,1,.5.9h0ZM386.4,382.6l.839-.448h.28v.392a2.742,2.742,0,0,1-.951,0c0,1.175-.727.951-1.846.28ZM356.8,364.252h-1.119v-.392l.839.671h.336ZM210.464,316.926a8.341,8.341,0,0,1-.671-.783v-.671a1.678,1.678,0,0,1,.9,0,7.017,7.017,0,0,1,.5.559l-.783,1.007h.9l-.336.448ZM538.557,173.213a5.6,5.6,0,0,1-1.566.5s-.392-.336-.615-.559.5-.559.671-.5a6.427,6.427,0,0,1,1.4.671l.392.448h0ZM485.3,119.678a1.287,1.287,0,0,1,.559-.392h-.671s-.392.615-.671.727a1.51,1.51,0,0,1-.951,0v-.559a1.957,1.957,0,0,1,.9-.336,2.294,2.294,0,0,1,.895.559ZM48.962,220.036l-1.79.671a2.112,2.112,0,0,1-.448-.5,2.259,2.259,0,0,1,0-.615,1.861,1.861,0,0,1,2.07.5ZM48.459,13.5c.839,0,1.566,0,1.9.9s0,.5,0,.5c-1.119.392-1.622,0-1.958-1.231l-1.119-1.119c1.063-.112,1.119.559,1.4.951Zm99.631.951v-.615h-.224l.448,1.734L145.46,13.95ZM69.772,51.206h.28l-1.79-1.231c1.9-.448,1.958-.448,1.678,1.231Zm43.634,14.377c-.671,0-1.678,0-2.07-.727.951-.671.951-.727,1.4-.5a7.769,7.769,0,0,1,1.063.839,2.461,2.461,0,0,1,2.517,1.51A4.531,4.531,0,0,1,113.406,65.583ZM399.991,372.2h3.692c-1.678.671-2.741,1.063-3.58,0h-.112ZM322.9,353.119a2.4,2.4,0,0,1,3.021,1.119c-1.958.336-1.958.336-2.965-1.175l-.671-.336h0Zm14.265,10.349a5.6,5.6,0,0,0,.951,0c1.175,0,1.231.5,1.343,1.287-1.454.5-1.958-.336-2.238-1.4-.448,0-.951.392-1.454-.392Zm172.3-223.428h-2.349c0-.392-.336-.727,0-1.007a.671.671,0,0,1,1.063-.392,14.275,14.275,0,0,1,1.566,1.175h0ZM128.566,193.3a8.222,8.222,0,0,1-2.238.783c-.727,0-.839-.559-.28-1.287l2.573.559c0-.448-.671-.9,0-1.622l1.9.9-.9,1.287ZM280.446,349.931c.727,0,.615.839.727,1.4a1.511,1.511,0,0,0,1.4,1.287l1.454.559c-1.9.559-3.133.392-3.972-.839a16.587,16.587,0,0,1,.392-2.405h-1.566c.615-.5,1.231-.951,1.566.224ZM91.7,89.805a10.852,10.852,0,0,1,2.349,0,1.566,1.566,0,0,1,1.007.9,4.525,4.525,0,0,1,0,1.51L93.1,90.98c-.559-.336-1.287-.5-1.343-1.4h-.671a1.509,1.509,0,0,1,.615.448Zm.671-32.614h0a.9.9,0,0,1,1.286-.727c1.343.615,1.79,1.566,1.9,3.468ZM372.972,368.5h-2.741a4.923,4.923,0,0,1-1.287-.392.615.615,0,0,1-.336-.5s0-.559.392-.559c1.454,0,3.133,0,3.916,1.734l.5.336Zm44.753-259.957-.615.336.392-.615v-.615a3.469,3.469,0,0,1,3.748,1.734C419.682,110.783,418.843,109.161,417.724,108.546ZM117.21,61.108v-.783h0l-.5.392c.9,1.622.9,1.622-.448,3.021-1.119-.615-2.126-1.734-3.58-1.846V60.66a8.559,8.559,0,0,1-5.147-1.231c.615,0,1.007-.448,1.343-.392a7.16,7.16,0,0,1,3.748,1.678,27.52,27.52,0,0,0,4.587.392ZM532.963,191.786c.671-1.287,1.622-.783,2.685-.392-.336,0-.5.448-.671.448h-2.014c-1.063,1.9-1.175,2.014-2.741,1.231a5.258,5.258,0,0,0-3.524-.9,7,7,0,0,1-.5-.9,20.865,20.865,0,0,1,5.594,0C532.068,191.226,532.459,191.618,532.963,191.786ZM472.826,106.14h0c1.678-.727,1.678-.727,2.014,1.287a12.365,12.365,0,0,1-4.755,0,.783.783,0,0,1-.783-.951c0-.783.671-.783,1.287-.615v.28Zm10.405,24h0c0-.5-.615-.5-1.119-.336-1.622.448-1.622.392-3.021-.5,1.287-1.566,2.909-1.231,4.475-.839,0,0,.559.5.615.839S484.014,130.419,483.231,130.139ZM387.516,372.755a1.714,1.714,0,0,1-.56.448,1.509,1.509,0,0,1-.5,0h1.063c0-.727,0-1.175.9-1.175h6.433a.671.671,0,0,1,.615,1.007s-.56.559-.727.5a4.923,4.923,0,0,0-3.972,0,2.965,2.965,0,0,1-3.244-.783ZM274.4,350.378h0a6.769,6.769,0,0,0-4.867-.448c0-1.119.336-1.79.951-1.678l3.412.671a3.355,3.355,0,0,1,.9.448l3.3,1.958a.8.8,0,0,1,.559,1.119c-2.014-.224-3.748-.224-4.531-2.294ZM114.917,68.828a11.8,11.8,0,0,1-4.307.448c-1.287-.392-2.238-1.9-3.412-2.853a7.166,7.166,0,0,0-1.454-.839,9.344,9.344,0,0,1,1.343,0,16.782,16.782,0,0,1,7.664,2.965s0,.392,0,.615,1.287-.5,1.846.727ZM159.669,15.18h0c0,.559,0,1.119.839,1.343a9.909,9.909,0,0,1,1.734.839,5.93,5.93,0,0,1-3.189.448,1.481,1.481,0,0,1-1.4-1.734c.224-.9,0-1.343-.951-1.79s-.559-.951.392-1.734l2.238,1.007c.727.336,1.51.5,2.294.9s.783.5.336,1.119ZM79.842,222.218s0-.727.448,0H79.73a2.238,2.238,0,0,0,2.182.783,5.2,5.2,0,0,1,5.594,4.2c-1.343.448-1.343.448-2.741-.5l.392-1.287a13.649,13.649,0,0,0-6.321-1.119C78.443,223.113,78.611,222.218,79.842,222.218ZM450.394,103.9h0V102.9a3.748,3.748,0,0,1,2.8,0c-.5,0-1.231.5-.615,1.287a1.79,1.79,0,0,0,1.119.727h3.468a19.188,19.188,0,0,1,3.133,0c.615,0,1.007.448.559,1.287a40.951,40.951,0,0,1-11.692,0c-.783-1.454.56-1.454,1.063-2.294Zm-313.94-.5h.392v-1.622c-1.119,1.287-2.182.392-3.524,0,.727-.839,0-2.573,1.79-2.517s1.287,1.454,1.566,2.405V102c0,.336,1.287-.615,1.9,0a2.461,2.461,0,0,0,2.238.671s.28,0,.392-.392c0-1.063-2.182-.615-1.622-2.182l2.853-1.007a3.524,3.524,0,0,1-4.251-3.245,3.079,3.079,0,0,1,0-1.007l-1.119,2.182c-.56,0-1.119-.336-1.4,0s-1.678,1.119-2.014,1.9a2.685,2.685,0,0,1-3.356,1.79l.783,1.51-2.909-.336c.336-1.566-2.07-.951-1.958-2.517h2.014c-.839-.5-1.678-1.007-2.573-1.454a11.58,11.58,0,0,1-4.531-3.468h0c-.336,0-.783.783-1.063.727-1.846-.336-3.636-.839-5.258-1.231l-2.685-5.594c-1.9,1.119-2.07,1.287-3.412.839s-2.629,0-3.468-1.343a6.266,6.266,0,0,0-2.965-1.79,6.1,6.1,0,0,1-4.14-3.524c-.28-.783-.951-.951-1.566-1.175s-1.622-.5-1.231-1.678l-2.182-2.07.448-.839c-.783,0-1.51-.615-2.294-.839a1.958,1.958,0,0,1-1.622-2.014l-.615-.615a5.874,5.874,0,0,0-1.231,4.084h.9l-.336.392-.5-.671a12.807,12.807,0,0,1-2.07,0c-.336,0-.559-.559-.9-.9l1.287-.9c-1.119-2.182-3.692-1.958-5.594-3.356V70.338c1.4,0,2.126,1.287,3.412,1.343-.448-1.231.336-2.741-1.231-3.356a6.933,6.933,0,0,1,1.287-1.678,2.237,2.237,0,0,1,2.293.56c.392,0,.839.671,1.231.671,1.622,0,2.685,1.007,4.028,1.51a64.158,64.158,0,0,1,7.72,4.867c1.343.727,2.461,1.846,3.8,2.517,2.405,1.231,4.923,2.238,7.384,3.356a2.07,2.07,0,0,0,1.622,0,5.091,5.091,0,0,1,2.07,0l3.524.448c.783-.615.448-1.678,1.454-1.678A1.622,1.622,0,0,1,120.9,79.96a4.642,4.642,0,0,1,0,1.734c1.734.5,3.468-1.007,4.923.448,0,.392-.5.9-.336,1.119a.615.615,0,0,0,1.119,0c.448-.839,1.175-.727,1.79-.392,1.734.951,3.412,1.958,5.594,3.3a10.013,10.013,0,0,0-5.594.28h0c1.734.9,1.734.9,3.86,3.524a4.976,4.976,0,0,1,.783.671,6.825,6.825,0,0,1,2.07,3.58.792.792,0,0,1,.615.336l.056-1.007,1.622,1.231a38.656,38.656,0,0,1,4.363,4.2,1.9,1.9,0,0,1,1.455,2.35,21.726,21.726,0,0,1-.5,3.245,3.972,3.972,0,0,1-2.8,0,1.454,1.454,0,0,0-1.846.28h0Zm32.278-76.975c-1.79.559-3.021-.9-4.531-1.4a25.846,25.846,0,0,1-5.594-2.573,2.909,2.909,0,0,1-1.734-2.741c3.692-.783,5.035,2.238,7.1,4.419h2.909a2.406,2.406,0,0,1,2.238,1.4,3.917,3.917,0,0,1,.448.559,1.958,1.958,0,0,1,0,.615,4.808,4.808,0,0,1-.9,0S168.843,26.424,168.732,26.424Zm67.129,323.115-3.021-.671c-.783.448-1.51,1.119-2.238,1.119-1.734,0-3.468-.392-5.594-.615l.951-2.853a35.806,35.806,0,0,1,5.091,0,43.8,43.8,0,0,1,5.035,1.622l-.5,1.231c2.294-.9,4.307.615,6.489.783a4.2,4.2,0,0,1,2.965,2.07,6.156,6.156,0,0,1-1.846-.392,6.545,6.545,0,0,0-6.321-.615h-.56ZM481.217,119.734h-.783a7.328,7.328,0,0,1-7.272,2.35c-.727,0-1.343-.448-1.007-1.4s2.294,0,3.468-1.175l-3.58-.671a4.251,4.251,0,0,1,3.412-1.175,11.8,11.8,0,0,1,7.272,1.622Zm3.357-13.985a13.482,13.482,0,0,1,8.111-1.51,1.287,1.287,0,0,1,1.119.5,1.342,1.342,0,0,1-.615,1.119,15.275,15.275,0,0,1-2.294.559,8.318,8.318,0,0,1-2.685-.783,8.111,8.111,0,0,0-1.678,0c-.5.783-.951,1.455-1.622,2.35a15.887,15.887,0,0,0-6.489,0,1.622,1.622,0,0,1-2.07-.9L479.2,105.8c1.79,0,3.133.336,4.531.336.392,0,.727-.448,1.063-.671a11.636,11.636,0,0,1-6.042-1.343,6.881,6.881,0,0,1,6.265.336ZM90.3,215.728l-1.4,1.678c-.671,0-1.678,0-2.07-.727a3.669,3.669,0,0,0-1.846-1.454,5.874,5.874,0,0,1-2.965-1.566c-.671-.839-2.238-.336-3.077-1.287a6.1,6.1,0,0,0-1.678-1.007,2.182,2.182,0,0,1,2.349-.839,16.783,16.783,0,0,0,4.923,1.622c1.9,0,2.909,1.79,4.755,1.734.839,0,1.119,1.007.951,1.958h0ZM44.934,153.522v.671c0,.224,0,.839-.615.783a.727.727,0,0,1-.448-.336,2.406,2.406,0,0,1,.5-.727,2.182,2.182,0,0,1,.615-.336,7.612,7.612,0,0,0-1.566-.615,11.986,11.986,0,0,1-3.468-.336c-1.119-.336-2.405-.392-2.965-1.678v-.615l1.51-.951-1.343-2.853a7.945,7.945,0,0,1,2.294,0c.671.336,1.175,1.287,1.9,1.454a59.163,59.163,0,0,1,5.874,3.133c.448,0,.783.671,1.119.951-.727.448-1.454.615-1.846,1.119S45.438,153.522,44.934,153.522ZM16.013,142.334a3.521,3.521,0,0,1-1.734,2.853l-2.182-.9,1.175-2.406a3.021,3.021,0,0,1,2.8.5c.5-1.343,1.846-.671,2.8-1.119a5.588,5.588,0,0,1-1.119-.615s-.448-.727-.336-.951a1.734,1.734,0,0,1,.9-.9,4.531,4.531,0,0,1,1.734,0l3.021.615a3.412,3.412,0,0,1,2.965,2.965,1.566,1.566,0,0,1-1.4,2.014,21.871,21.871,0,0,0-2.741,0,4.979,4.979,0,0,1-4.811-1.454Zm528.138,253.3a11.981,11.981,0,0,1,.56-1.231h0s.28.5,0,.559l-1.175.615c.5,0,1.007.727,1.51.727h8.112a3.244,3.244,0,0,0,.9-.28V394.4a11.188,11.188,0,0,1,6.154.559,4.7,4.7,0,0,0,3.692.392s.615.448,1.063.839l-2.741,1.231,1.846,1.287a1.622,1.622,0,0,1-2.07.783,4.475,4.475,0,0,0-3.412,0,2.461,2.461,0,0,1-2.965,0,6.936,6.936,0,0,0-4.587-1.063c-3.021,0-6.1-.28-9.119-.5l-.28-.392C541.354,397.145,543.312,395.634,544.151,395.634ZM158.159,308.311h0c.28,0,.615-.448.783-.336s.951.9,1.4.9a12.249,12.249,0,0,1,4.7,1.287,23.213,23.213,0,0,1,3.8,1.231,14.433,14.433,0,0,1,4.7,3.524,25.107,25.107,0,0,1,1.958-1.622,26.189,26.189,0,0,0,2.965,5.147l-2.853,1.958c-.9-.336-.783-1.678-1.958-1.4a1.342,1.342,0,0,1-1.23-.5c-1.9-2.238-4.811-2.238-7.273-3.133-.671,0-1.063,0-1.343.783h.671l-.839-.336a5.258,5.258,0,0,0-1.846-.783,4.363,4.363,0,0,1-3.189-1.622h0c-1.063.783-2.07,0-3.021,0a11.188,11.188,0,0,1-5.594-2.461l2.853-.5a.937.937,0,0,0-.5-.783,7.887,7.887,0,0,0-5.594,0,3.413,3.413,0,0,1-1.678,0,6.545,6.545,0,0,1-5.035-2.909,3.636,3.636,0,0,1,4.531,0,6.545,6.545,0,0,0,5.594.951,7.162,7.162,0,0,1,1.063,0,1.466,1.466,0,0,1,1.566-1.566,8.726,8.726,0,0,1,2.685.448A7.686,7.686,0,0,0,158.159,308.311ZM99.309,129.3h0a3.362,3.362,0,0,0,0,1.063,4.419,4.419,0,0,0,2.965,2.182c.448,0,1.063,0,1.175.5.559,1.231,1.734,1.51,2.685,2.126a19.02,19.02,0,0,1,1.678,1.287,11.187,11.187,0,0,0,1.734,1.063,41.787,41.787,0,0,0,6.265,2.238c2.182.5,3.692,2.517,6.042,2.573.448,0,1.063.9,1.287,1.51a17.831,17.831,0,0,1,.671,2.741l-2.909,1.846c-1.231-.671-2.35-1.4-3.524-1.9s-2.685-2.405-4.251-2.965a30.937,30.937,0,0,0-8.223-3.021,9.286,9.286,0,0,1-5.594-2.461c1.287-1.007.951-2.406,1.119-3.412-.783-1.119-2.182-.839-2.573-2.126,0,0-1.063-.559-1.51-.392-1.454.448-2.8,1.119-4.084,1.622l-4.2-.727c-.9,0-1.007-.392-.9-1.79a21.642,21.642,0,0,0,2.741,0c.336,0,.727-.392,1.231-.671-2.238-.951-3.636-2.965-6.154-2.741l1.231-3.58H84.373c-1.175,0-1.9,0-2.07-.727a1.958,1.958,0,0,1,1.343-1.846c.28,0,.727-.336.951,0s1.343,0,2.014,0a7.888,7.888,0,0,1,6.713.615,1.343,1.343,0,0,0,.951.336c2.07,0,3.636,1.678,5.594,1.063,0,0,.839.392,1.007.783a3.719,3.719,0,0,0,2.405,1.063v-2.014a4.2,4.2,0,0,0,2.406-.727,2.741,2.741,0,0,1,1.231-.448,4.363,4.363,0,0,1,4.7,3.245.913.913,0,0,0,1.51.671c0-.727-.5-1.454-.28-1.958s1.175-.5,1.9-.448a6.434,6.434,0,0,1,.951.336,31.663,31.663,0,0,0,6.321,1.566c.727,0,1.79,0,2.014.392a2.238,2.238,0,0,0,2.685.9c1.51-.336,2.405.392,3.468,1.454a7.159,7.159,0,0,0-1.51,1.343,10.636,10.636,0,0,0-.5,2.014,17.618,17.618,0,0,0-1.79,5.986h-1.231a1.378,1.378,0,0,0,.5,1.007.862.862,0,0,1,0,1.454c-1.678-.559-3.3-1.343-4.979-1.734a4.811,4.811,0,0,1-4.2-3.692,6.378,6.378,0,0,1-4.084-.671,35.347,35.347,0,0,0-4.7-1.51,8.726,8.726,0,0,1-4.811-1.734,14.377,14.377,0,0,0-3.468-1.511ZM90.358,62.171c1.343,0,2.517,0,3.133.5,2.294,1.9,5.594,2.238,7.216,5.594l-.783,3.412c-2.349.727-1.454-1.678-2.573-2.405-4.028-.727-7.552-3.692-11.636-3.692-1.734-1.287-3.189-2.294-4.531-3.357s-2.629-2.238-4.475-3.8A9.9,9.9,0,0,1,83.589,61L85.6,60.6a9.353,9.353,0,0,1,1.566,1.734,4.867,4.867,0,0,0,3.357,2.294H91.2c.224,0-.168-1.454-.727-2.517ZM286.151,361.958c.783-.615,1.063-1.119,1.4-1.119a7.44,7.44,0,0,1,3.133,0c3.356.839,6.881.783,10.181,1.79.839-1.454.839-1.454,2.35-.559a19.09,19.09,0,0,1-.56,3.356h-1.175a18.347,18.347,0,0,0-5.594-1.958,5.594,5.594,0,0,1-2.629-.671,2.741,2.741,0,0,0-2.014,0c-1.454,0-2.741-.727-4.755-.727ZM479.539,109.776l.448,1.4h3.245a5.594,5.594,0,0,1,2.629.839c.783.392,1.678.615,2.965,1.119a66.347,66.347,0,0,1-14.209,0,1.148,1.148,0,0,0-.448-.783l3.021-.448v-1.846ZM372.86,382.1a25.422,25.422,0,0,0,5.2-.336,3.188,3.188,0,0,1,3.189.727c-1.007,1.454-2.349,0-3.636.336l-.9,2.07h-3.972a4.755,4.755,0,0,1-2.014-.448c-.336,0-.671-.9-.56-1.175a9.017,9.017,0,0,1,1.4-1.958c.392-.392.9-.783,1.51-.336ZM533.97,134.782c0,1.175-1.063,1.287-1.9,1.231l-12.531-1.119c-.5,0-1.175,0-1.175-.951v-.336a129.505,129.505,0,0,1,15.607,1.175ZM52.878,35.319a13.706,13.706,0,0,0-3.58-2.294c-2.182-.392-2.909-1.734-3.356-3.748.727,0,1.566-.336,2.014,0q3.021,1.79,5.874,3.692a.951.951,0,0,1,0,1.566,10.059,10.059,0,0,0-1.007.783ZM388.523,369.734c-1.566,0-1.51-1.231-2.126-1.846a8.84,8.84,0,0,0-2.182-1.343c-.951,1.063,1.007,1.9,0,3.077l-2.629-.9a2.35,2.35,0,0,0-.727-3.189c-.447-.336-1.4-.392-1.231-1.4a1.511,1.511,0,0,1,.671,0,11.188,11.188,0,0,0,7.272,1.678s.392.28.559.392ZM82.135,130.027c-.727,0-1.343,0-1.566-.5A5.6,5.6,0,0,0,78,127.9c-.448-1.622-1.79-.839-2.741-1.007a2.238,2.238,0,0,1-1.063-.839.727.727,0,0,1,0-1.175c.392,0,1.007-.392,1.287,0a10.069,10.069,0,0,0,5.594,1.231,10.075,10.075,0,0,1,1.566.5ZM72.289,233.406a19.573,19.573,0,0,0-2.517-1.007,22.384,22.384,0,0,0-2.853,0V231.28c0-.168.839-.336,1.231-.615a.615.615,0,0,0,0-.559s-.336-.392-.5-.336a13.533,13.533,0,0,0-1.846,0,10.8,10.8,0,0,1,0-1.343,1.129,1.129,0,0,1,1.958-.9,3.692,3.692,0,0,1,1.79,2.853c0,.5,0,.9.839.839s0-1.958,1.4-2.294l1.79,1.678ZM437.3,382.992v-.671c1.9,0,3.8-1.007,5.594.5.448.392,1.287.336,1.958.448l5.594.5c.559,0,1.119,0,1.4.727s-.5.671-1.622.559c-2.741-.28-5.594-.727-8.279-.839A16.782,16.782,0,0,1,437.3,382.992ZM82.527,53.556c-1.175.392-2.126.559-2.909,0a13.033,13.033,0,0,0-4.2-2.405c-.28,0-.448-.615-.783-1.063a7.44,7.44,0,0,1,7.888,1.566Zm196.52,304.99c0,.783-.5,1.007-1.063,1.007h-3.86a3.412,3.412,0,0,1-2.573-.615c-.5-.447-1.678,0-2.517,0s-.671-.559-1.063-.951A22.376,22.376,0,0,1,279.047,358.546ZM101.155,58.926l1.454,1.175c.783.839.783,1.622,0,2.853s-.9.951-2.07.727a4.98,4.98,0,0,1-3.245-1.9s0-.391,0-.839L99.7,62.059c.727-.448,1.007-.951.5-1.734S100.26,59.206,101.155,58.926Zm19.523,101.756,6.042-1.566a3.132,3.132,0,0,1,1.678.336c.783.28,1.119.9.727,1.231a1.511,1.511,0,0,1-1.175.392,13.139,13.139,0,0,1-1.958-.615l-.559,1.9C123.979,161.745,122.021,162.864,120.678,160.683Zm26.852,39.662c2.853.5,5.594.559,7.049,3.8h-1.343c-1.734-1.063-4.028-1.063-5.594-2.8a3.586,3.586,0,0,1-.112-.783Zm324.457-88.331c-2.238.559-2.238.559-6.825-.9.28-1.119,1.175,0,1.734-.5l2.126-1.119a1.119,1.119,0,0,1,1.007,0,8.627,8.627,0,0,1,1.79,2.741ZM305.563,355.133c-1.063.5-1.846.951-2.07,2.238a2.126,2.126,0,0,0-2.07-1.175,1.628,1.628,0,0,1-1.734-1.622,1.4,1.4,0,0,1,.9-.9,2.517,2.517,0,0,1,2.853.615C304,355.077,304.724,354.574,305.563,355.133ZM69.213,218.3c1.343.392,2.741,0,3.916,1.231a4.364,4.364,0,0,1,0,3.245,2.126,2.126,0,0,1-2.461-.9l.448-1.343C69.269,220.036,69.269,220.036,69.213,218.3Zm308.01,147.292c.28.671-.559,1.566.671,1.678s1.119.336.727,1.231a4.811,4.811,0,0,1-3.748-.671v-1.678c-.392-.671-1.51-.671-1.622-1.9ZM132.09,30.676a5.6,5.6,0,0,1,1.622,0,14.1,14.1,0,0,1,5.594,3.3V34.7a7.5,7.5,0,0,1-3.636-.783C135.167,32.018,133.489,32.018,132.09,30.676ZM103.56,90.421H102.33a49.621,49.621,0,0,1-7.272-3.748,2.035,2.035,0,0,0-.392-1.063,6.773,6.773,0,0,1,1.846.28,31.267,31.267,0,0,1,7.049,4.531Zm393.152,11.636c0,1.566-1.063,1.175-1.678,1.231a13.257,13.257,0,0,1-7.048-.671v-.5c3.021-.783,5.818.448,8.727-.056Zm45.536,202.115c0-.951-1.007-1.4-.392-2.294a3.3,3.3,0,0,1,3.356-.392c.448.671-.727,1.4.448,2.014l2.07-1.4-.671,2.07ZM495.37,397.257c2.294-1.119,3.86,0,5.594,1.287v.615a1.055,1.055,0,0,1-.671.615,7.719,7.719,0,0,1-4.251-1.287A3.58,3.58,0,0,1,495.37,397.257ZM139.083,202.079c4.363-.727,6.769,0,7.608,2.07a14.432,14.432,0,0,1-7.608-2.07ZM578.051,320.9c-.5.448-1.007,1.175-1.51,1.175a20.31,20.31,0,0,1-4.084-.448c-.28,0-.5-.392-.839-.615C576.541,319.611,575.981,319.331,578.051,320.9ZM148.984,278.718c-.783-.392-.28-.839,0-1.231a4.63,4.63,0,0,0,.392-1.51c.112-.448.727,0,.9,0l3.357,2.07c-.5,2.014-.5,2.014-2.07,2.07v-1.958ZM127.391,64.856a8.279,8.279,0,0,1-5.986-2.741v-.839a.951.951,0,0,1,.9,0c1.678,1.063,3.3,2.126,4.867,3.245C127.279,64.408,127.335,64.688,127.391,64.856ZM568.653,393.117c.56-1.79,1.175-2.573,2.07-2.405a2.35,2.35,0,0,1,2.182,2.35,7.831,7.831,0,0,1-4.252.056Zm-140.188-285.3c-1.4,3.245-1.9,3.524-4.419,2.294l1.454-.839v-2.294Zm80.107,21.593c2.909,0,5.035,0,6.769,1.958a7.44,7.44,0,0,1-6.769-1.9ZM116.986,46.563s.392-.336.5,0a19.745,19.745,0,0,1,6.209,2.685,1.866,1.866,0,0,0,.28.951,3.021,3.021,0,0,1-2.35-.448,45.8,45.8,0,0,0-4.42-3.133ZM578.443,399.55a2.126,2.126,0,0,1-2.517-1.734,2.182,2.182,0,0,1,.5-1.566,1.063,1.063,0,0,1,1.51-.28,1.231,1.231,0,0,1,.671,1.454,11.723,11.723,0,0,0-.168,2.126Zm-507.5-380.4c2.517,1.343,5.594.951,7.832,3.468H77.1l-5.594-2.573S71.171,19.488,70.947,19.152ZM479.315,380.81l1.454,1.343c.392.448.671,1.007,0,1.566a1.175,1.175,0,0,1-1.566,0l-2.349-1.343a1.344,1.344,0,0,1-.5-.392ZM76.541,53.5c-1.343.336-2.405.671-3.468.839,0,0-.448-.336-.727-.559,1.007-.671-.392-1.734.392-2.405A7.272,7.272,0,0,1,76.6,53.5ZM12.209,138.642l-3.133,1.846H8.517c-.671-1.343,0-2.182,1.175-2.8S11.482,137.355,12.209,138.642Zm48.5,88.387a3.468,3.468,0,0,0,3.468-1.287h.9a1.119,1.119,0,0,1,.336.9,3.3,3.3,0,0,1-2.629,2.014c-1.063.336-1.119.336-2.07-1.622ZM472.379,394.851h-.9c-.559,0-1.231,0-1.4-.783s.783-1.063,1.622-.783a7.554,7.554,0,0,1,2.126,1.063,1.063,1.063,0,0,1,0,1.566c-.448.783-.951,1.343-1.958.559ZM484.8,122.363c-2.126,0-4.084,1.454-6.321,0,.615-.5,1.007-1.119,1.4-1.119a34.4,34.4,0,0,1,4.14.336,3.934,3.934,0,0,0,.783,1.007ZM158.159,293.486c1.175.671,2.07,1.063,2.853,1.622s1.119.448.671,1.4h-1.622l-2.07-.615A11.878,11.878,0,0,0,158.159,293.486ZM313.9,78.114h2.126a1.566,1.566,0,0,1,1.51,1.231,1.511,1.511,0,0,1,0,1.231,1.734,1.734,0,0,1-1.287.336,3.3,3.3,0,0,1-2.35-2.8ZM84.541,238.329a12.193,12.193,0,0,1,1.79-2.461h1.51c.448,0,.392.9.28,1.231-.448,1.4-1.287,1.9-3.524,1.231Zm16,4.084c-.559,0-1.063,0-1.175-.336a21.8,21.8,0,0,1,0-2.8,5.035,5.035,0,0,1,3.8,0c0,1.007-.559,1.51-1.622,1.287a2.63,2.63,0,0,0-.951,0ZM567.7,327.89s-.727-.5-.671-.671a3.411,3.411,0,0,1,.727-1.846,1.566,1.566,0,0,1,1.9,0,1.007,1.007,0,0,1,.392.839c-.28.9-1.231,1.287-2.293,1.678ZM128.4,36.214h2.741a.951.951,0,0,1,.56,1.4,2.519,2.519,0,0,1-1.231,1.063,1.084,1.084,0,0,1-1.119-.615,19.9,19.9,0,0,1-.951-1.846Zm70.15,2.07h-2.909a2.121,2.121,0,0,1-2.014-1.79c1.958-.336,1.958-.336,4.923,1.79Zm274.446,75.744a7.217,7.217,0,0,1,3.972.392c-.336.448-.56,1.007-.839,1.119a8.393,8.393,0,0,1-2.35,0c-.727.112-1.287-.336-.783-1.51ZM92.876,240.454c-1.007,1.678-2.182.9-3.245.615a3.245,3.245,0,0,1-.336-2.35c1.007-.559,1.119.5,1.678.783Zm445.066,59.3c1.343-2.014,2.517-2.182,3.86-.671v.615c0,.168-.336.448-.5.448Zm-178.4,78.205s.448-.392.615-.392a8.726,8.726,0,0,1,1.734,0c.783,0,1.343.783,1.007,1.119a2.348,2.348,0,0,1-1.454.671C360.665,379.411,359.546,378.852,359.546,377.957ZM188.031,328.505a2.85,2.85,0,0,0,0-.559c.392-1.063,1.287-.727,2.07-.783a1.678,1.678,0,0,1,1.622,1.343.615.615,0,0,1,0,.615.727.727,0,0,1-.559.336A9.005,9.005,0,0,1,188.031,328.505ZM293.424,69.779c.392,0,.951.5,1.343.839a.951.951,0,0,1-.336,1.51,1.958,1.958,0,0,1-2.406-1.343.671.671,0,0,1,0-.615,6.208,6.208,0,0,1,1.4-.168Zm199.765,61.2c-1.958,0-1.958,0-2.965-.5a14.257,14.257,0,0,1,1.958-.783c.951.056,1.175.671,1.007,1.51ZM115.644,39.626a5.593,5.593,0,0,1-1.79,0,14.371,14.371,0,0,1-2.629-.839c-.28,0-.392-.559-.559-.839a4.023,4.023,0,0,1,1.063-.615,20.923,20.923,0,0,1,3.916,2.294ZM149.6,292.2c1.175-1.9,2.349-1.734,4.755.5-1.79.559-3.077-.559-4.755-.5Zm-7.832-183.43c-2.629.392-2.741.336-3.58-1.343C140.593,106.979,140.705,107.035,141.768,108.769ZM350.539,371.692c.448-1.343,1.287-1.119,2.07-.727s.951.5.559,2.294ZM138.58,119.958c-1.119.392-1.566.727-1.9.615a8.391,8.391,0,0,1-2.126-1.063c-.448,0-.28-.727.28-1.119ZM499.4,129.8v.392h0c-1.063,0-2.182-.336-3.133.5s-1.119,0-.9-1.175ZM311.325,377.286c-.951-.951-2.07-1.287-1.9-2.405a1.678,1.678,0,0,1,2.014-1.566q0,1.175,0,2.349A11.619,11.619,0,0,1,311.325,377.286Zm-87.044-31.271a1.936,1.936,0,0,1,0,2.461c-.671.727-1.343.9-2.126,0A2.231,2.231,0,0,1,224.281,346.015Zm-86.708-132.58a2.573,2.573,0,0,1-2.909,0,.56.56,0,0,1,0-.559.671.671,0,0,1,.392-.559C135.782,211.477,136.454,211.7,137.573,213.435ZM540.85,199.841a17.175,17.175,0,0,1,5.594-.448c0,1.063-.9,1.119-1.566,1.063s-1.287-.392-2.014-.5A15.767,15.767,0,0,0,540.85,199.841Zm-59.633-84.583a15.664,15.664,0,0,1-2.517.783c-.28,0-.727-.448-.9-.839s0-.839.615-.951a2.685,2.685,0,0,1,2.8,1.007ZM105.63,35.375c1.79,0,1.79,0,2.909,1.343a2.517,2.517,0,0,1-2.909-1.342Zm253.412,329.1a2.853,2.853,0,0,1,.783,0h1.007c.951,0,1.566.559,1.343,1.063a1.342,1.342,0,0,1-1.734.727C359.546,365.818,359.1,365.594,359.042,364.475Zm109.085,22.376c1.4-.615,2.349-.448,2.573.5a1.844,1.844,0,0,1-.448,1.231h-.9a12.371,12.371,0,0,1-1.231-1.566ZM317.758,359.832c-2.238,0-2.238,0-3.077-1.958.448-.448.951-.615,1.454,0a25.036,25.036,0,0,1,1.622,1.958ZM349.812,91.875c-1.566-1.51-3.189-1.063-4.363-2.182C348.358,89.134,349.141,89.414,349.812,91.875Zm11.915,291.34c0-1.119,0-1.622.839-1.622s1.454.336,1.958,1.846ZM347.463,365.37l1.9-1.51c1.343,1.063,1.343,1.063.671,2.405ZM81.8,235.14a3.525,3.525,0,0,1,.336-1.007c.727-.951,1.51-.9,1.846,0a5.2,5.2,0,0,1,0,1.343,1.843,1.843,0,0,1-.336.671Zm14.041-6.433H93.155c-.951,0-1.063-.615-.9-1.51Zm461.344,95.771a5.147,5.147,0,0,1-3.021,0c-.335,0-.559-.559-.783-.9s.447-.448.727-.5a3.077,3.077,0,0,1,3.077,1.4ZM28.991,142.67c2.462-.727,2.462-.727,3.748.9a4.643,4.643,0,0,1-3.748-.9Zm113.672-21.146-3.3-.783C141.376,119.454,141.936,119.51,142.663,121.524Zm437.29,231.651c.28,0,.447-.559.615-.559a2.014,2.014,0,0,1,1.79,1.678.9.9,0,0,1-.28.559h-.9a11.618,11.618,0,0,1-1.231-1.678ZM529.606,196.541c1.454,0,2.517,0,3.357.951l-1.175,1.343ZM439.43,113.58a3.021,3.021,0,0,1,3.021.5C441,114.363,441,114.363,439.43,113.58ZM120.566,71.9c-.671-.559-1.51-.839-1.343-1.9a2.35,2.35,0,0,1,2.405,1.231ZM547,281.4h-.615a16.389,16.389,0,0,1-.783-2.126,1.23,1.23,0,0,1,.615-1.007c.56,0,.9,0,.9.671a15.762,15.762,0,0,1-.28,2.461Zm-420.4-92.135c-1.343.951-2.126,0-3.077-.448s-.671-.615,0-1.175ZM78.667,231.112a8.052,8.052,0,0,1-1.622,1.007A.986.986,0,0,1,76.094,231a1.007,1.007,0,0,1,1.342-.783,5.592,5.592,0,0,1,1.231.9Zm485.511,94.652-1.79.9h-.615a.783.783,0,0,1-.615-1.007c.5-1.007,1.231-1.063,3.021.112Zm-428.4-51.074a3.021,3.021,0,0,1,1.79-2.182C137.461,274.8,137.349,274.97,135.782,274.69Zm-31.495-45.032c-1.566.783-2.07.727-2.573,0s0-.559,0-.615.56-.448.783-.336a9.009,9.009,0,0,1,1.678.951Zm260.852,143.6a4.811,4.811,0,0,1-1.287,0s-.336-.5-.5-.783h0a1.175,1.175,0,0,1,1.51.5Zm176.885,20.418a1.287,1.287,0,0,1-.839,1.51,1.231,1.231,0,0,1-1.119-.392c-.392-.727,0-1.007.783-1.175a4.14,4.14,0,0,1,1.343.224ZM120.287,277.04a7.839,7.839,0,0,1-.895-1.343s0-.559,0-.615a1.286,1.286,0,0,1,.839-.28C121.294,275.026,121.294,275.585,120.287,277.04ZM140.985,38c-1.063-.336-2.014,0-2.629-.9s0-.448,0-.559a.839.839,0,0,1,.56-.336A2.8,2.8,0,0,1,140.985,38ZM129.8,33.865c1.454,0,1.454,0,2.8,1.119-1.678-.224-1.678-.224-2.405-1.119ZM454.981,378.4l-.336.448a11.184,11.184,0,0,1-1.343,0c-.951-.336-.951-.615.28-1.958Zm120.888-30.935a1.287,1.287,0,0,1-1.51.839.649.649,0,0,1-.615-.951,1.23,1.23,0,0,1,1.063-.448,2.1,2.1,0,0,1,1.231.559ZM526.7,259.81h1.9c.615,0,1.063.448.727.671a1.287,1.287,0,0,1-.9,0q-.8-.3-1.566-.671ZM81.688,203.2a9.35,9.35,0,0,1,1.343.9.951.951,0,1,1-1.846-.392A5.586,5.586,0,0,1,81.688,203.2ZM283.8,359.832c.615,0,.951-.336,1.287,0a4.027,4.027,0,0,1,1.063.615v.28a3.3,3.3,0,0,1-1.231,0c-.392-.168-.615-.559-1.119-1.007Zm-56.668-39.55L228.7,322.3c-1.9.615-1.958.336-1.566-2.126Zm229.078,72.164c-.5-.392-.951-.615-1.063-.951s.56-1.287,1.007-1.063a1.454,1.454,0,0,1,.839.9c.056.168-.447.5-.783,1.007ZM109.378,63.513a4.923,4.923,0,0,1-1.51.336,2.212,2.212,0,0,1-.5-.727c-.056-.28,0-.5.336-.5a3.636,3.636,0,0,1,1.343,0l.336.783Zm168.773-.671h1.734c.615,0,1.119.5.783.783a1.342,1.342,0,0,1-.9,0,7.55,7.55,0,0,1-1.622-.895ZM136.23,303.612c0,.783.56,1.231.448,1.51s-.727.392-1.119.392-.448-.5-.392-.671S135.782,304.227,136.23,303.612ZM408.606,375.5c2.35-1.622,2.35-1.622,2.909,0Zm148.859-73.842a17.78,17.78,0,0,1,.9,1.79s0,.448,0,.5a.783.783,0,0,1-.615,0C556.626,303.5,556.626,303.276,557.465,301.654Zm-182.088,71.6a3.75,3.75,0,0,1,.783,1.063c0,.28-.391.951-.671.951a1.493,1.493,0,0,1-1.119-1.063C374.258,373.594,374.538,373.258,375.377,373.258Zm-61.983-14.489v.559l-2.238-.559V358.1Zm99.855-251.9a.9.9,0,0,1-1.4,0,1.224,1.224,0,0,0-.336-.839,2.516,2.516,0,0,1,.615,0,2.63,2.63,0,0,1,.951,0S413.193,106.7,413.249,106.867ZM314.122,371.524v-1.846c0-.559.28,0,.448,0h0S315.3,371.076,314.122,371.524ZM533.858,260.817h-.28c-.615,0-1.175,0-1.454-.392s0-.559,0-.9l1.4.783S533.8,260.7,533.858,260.817ZM360.441,372.307c-.615,0-1.119.671-1.622,0h1.622ZM115.756,256.677c-.448.336-.727.671-1.063.727s-.615-.392-.671-.615a.671.671,0,0,1,.783-.839C115.084,255.782,115.308,256.286,115.756,256.677ZM381.922,374.545l-.615,1.287h-.56a6.2,6.2,0,0,1,.392-.9S381.251,374.657,381.922,374.545ZM168.843,296.227c0,.392.671.783.615.9a4.082,4.082,0,0,1-.9.783,3.252,3.252,0,0,1,0-.9s-.224-.224.056-.559ZM495.2,127.118h-.28l-1.4-.559V126c0-.112.951,0,1.287.448A.9.9,0,0,1,495.2,127.118ZM374.818,98.141c0,.839-.5.839-.9.839a.711.711,0,0,1-.783-.392,3.415,3.415,0,0,1,.951-.839s.5.336.727.448Zm80.891,286.306a1.116,1.116,0,0,0,0,.392c-.28.559-.671.9-1.287.559s-.392-.448-.56-.727a4.248,4.248,0,0,1,1.007-.5C455.093,384,455.429,384.446,455.708,384.446ZM112.231,243.755a8.167,8.167,0,0,1-1.119.839h-.56c-.112,0,0-1.007.5-1.063a5.593,5.593,0,0,1,1.175.112ZM233.175,344.448v-.727h1.958s0,.28.559.559c-.9,1.007-1.734.28-2.517.056Zm-94.484-70.262a7.886,7.886,0,0,1,.615,2.07.839.839,0,0,1-.615.615s-.671-.392-.671-.615a13.16,13.16,0,0,1,.671-2.07Zm86.6,46.711-3.021-.727C224.952,319.555,224.952,319.555,225.288,320.9ZM247.664,62.842c-1.231.336-2.126-.336-3.468-.839,1.678-.5,2.741-.671,3.468.839ZM132.426,273.571c-.336,0-.615-.392-.671-.559a.792.792,0,0,1,1.343-.839Zm2.182-3.692H133.1c-.28,0-.392-.392-.559-.615a1.566,1.566,0,0,1,.839,0,4.587,4.587,0,0,1,1.343.615Zm71.045,65.339V336c0,.112-1.007,0-1.231-.783a1.959,1.959,0,0,1,0-.615ZM222.435,52.045s-.336.5-.448.5H220.7v-.615a1.68,1.68,0,0,1,.9,0,1.352,1.352,0,0,1,.727.112ZM157.1,23.124c-.783.559-1.231,0-1.622-.559.671-.559,1.119,0,1.51.559Zm-4.084-6.6h-.951a3.581,3.581,0,0,1-.559-1.007h0a3.19,3.19,0,0,1,1.063.56l.336.447ZM144.4,11.768l2.35,1.51c-1.343.615-1.79.168-2.461-1.51ZM483.847,395.634c0,1.622,0,1.622-1.622.839Zm-31.1-19.971h-.336c-.559-.336-.9-.783-.615-1.4s.727-.392.839,0a1.063,1.063,0,0,1,.28,1.51Zm-132.356-8a6.821,6.821,0,0,1,1.063.671,4.474,4.474,0,0,1-1.175,0s-.28-.448-.448-.671S320,367.664,320.387,367.664Zm39.494-.951a4.253,4.253,0,0,1-.392.783H358.2s0-.727.448-.727q.443-.13.9-.224Zm29.425-.615a3.021,3.021,0,0,1,1.007,0,1.176,1.176,0,0,1,.671.615v.559a2.181,2.181,0,0,1-.9,0s-.839-1.007-1.063-1.343Zm-101.085-2.741a8.627,8.627,0,0,1,.448,1.063h-.56l-.559-1.007Zm55.493-4.923-.559-.951h.559c.168,0,.951,0,.727.839s-.671-.224-1.007-.056ZM237.147,345.12v-.392l1.454.5a.783.783,0,0,1,0,.5.448.448,0,0,1-.56,0Zm-49.731-27.8.559.727s-.392.392-.5.336a4.189,4.189,0,0,1-.839-.5ZM212.7,316.7v-.727a7.657,7.657,0,0,1,1.622,0,.559.559,0,0,1,.28.559s-.168.783-.5.783Zm337.435-8.839a3.02,3.02,0,0,1-.9,0c-.559,0-.951-.392-.671-.727s1.175.448,1.566.951ZM143,273.18c0,.336-.448.671-.5.615a3.022,3.022,0,0,1-1.175-.448s0-.448,0-.559.392,0,.559,0A6.6,6.6,0,0,1,143,273.4ZM535.648,241.8c-.9,1.287-.951,1.287-2.182,0Zm-459.5-8c-.5,0-.839.336-1.063,0s-.448-.392-.671-.671.615-.336.839-.28.5.559.895,1.175Zm36.977-33.565c-.336-.5-.615-.839-.56-1.007a3.261,3.261,0,0,1,.615-.727c.224-.224.671.448.615.615a3.637,3.637,0,0,1-.392,1.063Zm-69.311-1.4c0-.727.28-1.231,1.175-1.231v1.119Zm496.363-27.971a2.573,2.573,0,0,1-3.468,0ZM56.626,152.124a5.6,5.6,0,0,1-1.51,0,2.35,2.35,0,0,1-.671-.448s.5-.5.727-.5a10.446,10.446,0,0,1,1.454.727ZM33.634,146.25c-.671.615-1.231.727-1.622,0s0-.559.28-.839ZM492.35,135.677c-.839.615-1.454.671-2.685,0Zm.615-2.965h1.678s.336.28.336.448a.615.615,0,0,1-.448.392,1.4,1.4,0,0,1-1.454-.839Zm-41.9-8.391a10.776,10.776,0,0,1-1.119-1.063s0-.5,0-.5a6.773,6.773,0,0,1,1.119.5,1.052,1.052,0,0,1,.112.839ZM122.748,115.93a3.019,3.019,0,0,1-1.007,0s-.392-.448-.615-.671a1.567,1.567,0,0,1,.839,0A1.428,1.428,0,0,1,122.748,115.93Zm12.755-1.063c-.392,0-.671.448-.839.392s-.392-.392-.559-.671.5-.392.783-.392.336.112.9.448ZM105.407,72.3h0s0,1.119-.56,1.287-.336,0-.336,0l.5-1.454a3.156,3.156,0,0,1,.392-.056Zm213.47,286.361v.336l-.9-.392h0Zm37.928,3.3v.559s-.5,0-.5-.336a1.845,1.845,0,0,1,.392-.727Zm187.346-67.017-.615-.28a4.141,4.141,0,0,1,.727-.671h.447Zm-7.272-95.883Zm-423.472,3.524a.384.384,0,0,1-.392.392h-.559l.5-.615Zm33.005,3.86v-.336h1.734v.336Zm62.374,129.839c-.28.392-.336.615-.5.727l-.9.392h0a6.1,6.1,0,0,1,.727-.951,1.316,1.316,0,0,1,.727-.168ZM82.974,216.624l1.007.727s-.392.559-.615.559-.9,0-.839-.671S82.75,217.183,82.974,216.624ZM358.2,224.847h0Zm105.449,160.83s0-.28.336,0h-.336ZM101.491,232.734l-.448-.5.951-.671v.5A3.8,3.8,0,0,1,101.491,232.734Zm86.876,76.415a.854.854,0,0,1-.392.615.839.839,0,0,1-.615,0,.729.729,0,0,1,0-.5,2.518,2.518,0,0,1,1.007-.112Zm-79.044-75.744.671.336a2.519,2.519,0,0,1-.56.727h-.559Zm-11.58,4.307a4.471,4.471,0,0,1,0-.839h.5a2.909,2.909,0,0,1,.336.727ZM341.533,363.86a2.46,2.46,0,0,1,.559.448v.448l-.671-.448ZM92.2,26.424l-.783-.9h0l1.007.559ZM251.58,354.574l-.559.671a1.455,1.455,0,0,1,0-.559.626.626,0,0,1,.28-.5ZM184.059,39.291h0a2.346,2.346,0,0,1-.783-.5v-.28Zm-46.822,0-1.9.448a.659.659,0,0,1-.559-.336c-.168-.336.392-.5.615-.5a5.594,5.594,0,0,1,1.846.559ZM307.3,362.741l-.559-.336h.559c.168,0,0,0,.28.392Zm-8.111-287.2s-.28-.392,0-.5.392,0,.559-.336,0,.5,0,.559a.9.9,0,0,1-.559.448Zm-19.971,279.7-.559.615-.839-.951.448-.392Zm91.016,9.118v.559s-.392,0-.448-.28a.841.841,0,0,1,0-.5Zm46.543-259.118a3.638,3.638,0,0,1-.615.839s-.671,0-.671-.392a2.913,2.913,0,0,1,.336-.9ZM136.286,271.557c.839-.9,1.4-.727,2.629,0ZM436.129,110.336l-.559-.448,1.007-.727v.615A3.235,3.235,0,0,1,436.129,110.336ZM143.894,115.93c0-.448-.56-.727-.5-.951a.9.9,0,0,1,.671-.5s.5.392.5.615a3.909,3.909,0,0,1-.671,1.231Zm342.75,16.782h-.615v-.336Zm-255.762,189.7c0,.28,0,.615-.28.615a.5.5,0,0,1-.559,0v-.559Zm34.571,26.572h-1.007v-.28Zm159.655,26.46v-.392h1.566v.392Zm-77.366-17.174a7.048,7.048,0,0,1-1.343,0v-.392h0Zm-163.515-38.1c.951-.448,1.4-.671,1.958.28Zm135.041,54.319-.392-.783h.559a3.016,3.016,0,0,1,.5.671ZM182.6,316.814h-.559c-.112,0,0-.392,0-.559s.448,0,.5.28S182.661,316.59,182.6,316.814Zm169.053,46.6ZM562.667,303l.56.392-.392.783-.727-.448Zm-21.761-7.328c0,.336,0,.615-.28.671a.671.671,0,0,1-.56,0v-.5Zm-228.462,77.59s0-.392.336-.392h.615l-.5.615A1.071,1.071,0,0,0,312.444,373.258Zm87.268-5.314h-.5c-.112,0,0-.336-.28-.559s.448,0,.56,0,.168.28.224.615ZM275.97,363.3h-.5c-.112,0,0,0-.28-.448s.392,0,.5,0,.224.336.28.5Zm-209-128.328-.448.336v-.28a2.3,2.3,0,0,1,.28-.5Zm26.068-.28h0Zm13.314-20.586a3.913,3.913,0,0,1-.559-1.063.774.774,0,0,1,.28-.559c.28-.224.448,0,.448.392a4.083,4.083,0,0,1-.168,1.231Zm382.915-81.394h-.056Zm-11.188-6.321h-.056ZM116.818,114.643a.9.9,0,0,1,.5,0,.56.56,0,0,1,0,.5h-.5a.727.727,0,0,1-.112-.615Zm307.116-7.384v.28h-1.622v-.392Zm74.289-1.566h-.671a1.117,1.117,0,0,1-.447-.448l.391-.336ZM116.651,103.4l-.56-1.007h.56a1.231,1.231,0,0,1,.448.727.7.7,0,0,0-.56.168ZM491.007,97.8v.28h-.559l.336-.448ZM112.679,76.771h.559v.448a1.007,1.007,0,0,1-.559,0S112.623,76.771,112.679,76.771Zm16.447,1.063h0ZM266.852,64.408a1.784,1.784,0,0,1,0,.5h-.392ZM59.871,40.633h0v0ZM364.525,365.482l.28.559h-.5c-.056,0,0-.336,0-.5Zm185.332,33.565c-1.007.559-1.454.727-2.126,0Zm-200.94-27.97a2.573,2.573,0,0,1-.28.559h-.615a2.8,2.8,0,0,1,.448-.671ZM279.774,364.2l.727-.5v.5a7.331,7.331,0,0,1-.671.615Zm25.173,6.265h.28v.448Zm-41.061-10.573a2.575,2.575,0,0,1,.392.783l-.392.392a3.579,3.579,0,0,1-.559-.727Zm47.718,4.531h-.5c-.056,0,0-.336,0-.559s.392,0,.5,0a1.4,1.4,0,0,1-.056.783Zm147.013,28.865H458v-.392ZM306.682,352s-.5,0-.559-.28a1.864,1.864,0,0,1,0-.559l.783.448Zm4.084-.448h-.448v-.559l.671.448ZM392.1,368.335Zm28.977,4.923Zm-63.717-.783Zm-83.911-18.852Zm-19.915,0Zm112.441-126.2h0l-.336-.5h0ZM315.632,364.755l.5.336s-.336.28-.5.28a1.566,1.566,0,0,1-.5-.28ZM75.087,220.763h.28v.336ZM324.135,360.951h0Zm59.018,14.265ZM72.4,209.855h-.56a.542.542,0,0,0,.448-.336ZM545.661,163.7ZM312.164,362.07h0Zm230.421-208.1h-.615a2.521,2.521,0,0,1,.615-.056ZM310.542,361.343h0a2.29,2.29,0,0,1-.28.5h0ZM88.624,150.781l-.392-.336h.5ZM395.068,377.342Zm123.07-232.714ZM376.888,377.4h.056S376.832,377.342,376.888,377.4Zm109.42-248.21h0ZM539.284,283.3ZM142.439,106.7Zm264.488-.727Zm69.646,0h0v0ZM119,105.133h0v0Zm290.445,0h-.615a1.4,1.4,0,0,1,.671.056ZM384.552,101.5ZM366.818,375.216ZM130.188,272.564ZM493.8,94.9v.559s-.448,0-.448-.336V94.56ZM333.869,83.148s0,.392-.336.392h-.559c-.168,0,0-.392,0-.392a1.4,1.4,0,0,1,1.007,0Zm-6.881-1.119Zm33.565-.783Zm-244.8-2.909Zm2.182-11.188Zm10.349-5.594h.28V62ZM134.5,58.59h-.28s.447-.056.447-.112Zm271.313,319.7Zm-92.526-25.565h0v0ZM209.569,46.451h.336a.392.392,0,0,1-.336,0Zm355.5,355.113h-.615a2.63,2.63,0,0,1,.5-.336ZM184.731,317.317a.392.392,0,0,1,0,.28h-.28v-.28ZM140.929,40.41h-.448c-.056,0,0-.392,0-.559s.392,0,.448.28A1.178,1.178,0,0,1,140.929,40.41Zm-84.3-.727V39.4h.56ZM164.2,22.509Zm5.594-3.524h.28s-.392-.056-.392,0Zm-21.705-6.993q.014.28,0,.559h0a.329.329,0,0,1-.336-.336c0-.336.056-.056.224-.224ZM293.2,352.616ZM55.339,11.376h0v-.336h0ZM388.3,380.922Zm-18.8-1.287Zm-1.622-.783Zm52.3-2.573Zm-41.844-1.4h0v0Zm17.789-.671Zm26.74,0Zm-53.032-4.2Zm-8.335-2.405Zm-78.317-2.853Zm3.58,0Zm11.188,0Zm-1.566-.5Zm-23.327-3.468Zm25.285-5.2Zm0-1.231Zm50.906-1.51Zm-115.965-.671Zm118.706-1.678Zm-105.9-2.014Zm-39.774-7.944h0a.2.2,0,0,0,.168-.112Zm-7.16-9.734ZM179.528,319Zm388.062-6.713Zm-390.915-2.126Zm369.21-69.87ZM64.346,219.253Zm64.5-10.741Zm-43.858-1.4h0s.112-.224.447-.112Zm14.824-7.272Zm438.241-7.776h0v0Zm-17.789-47.55h0v0Zm-19.579-13.37ZM122.357,71.793Zm170.06-6.881h.28v.112ZM123.476,59.933Zm-5.594-14.824h0Zm8-.559ZM98.3,32.858Zm32.446-5.594Zm-57.9-10.573Z" transform="translate(0 0)" fill="#fc7e58"/>
</svg>
