<svg xmlns="http://www.w3.org/2000/svg" width="133.631" height="27.797" viewBox="0 0 133.631 27.797">
  <g id="Group_2151" data-name="Group 2151" transform="translate(0 0)">
    <path id="Path_17971" data-name="Path 17971" d="M556.853,187.466a2.432,2.432,0,1,1-2.432,2.432,2.432,2.432,0,0,1,2.432-2.432Zm32.785,8.934c.124-4.08,6.677-4.453,10.477-2.152l-1.4,2.76a5.6,5.6,0,0,0-3.882-1.216c-1.367.112-1.515,1.6.7,1.544,3.461-.087,5.328,1.732,5.145,4.07-.3,3.775-6.243,5.321-11.46,2.011l1.918-2.807c1.45.833,2.9,1.577,4.35,1.4,1.51-.18,2.273-1.4-.421-1.684-3.667-.389-5.5-1.563-5.426-3.929Zm-28.6,8.83V193.6h4.232v1.634c1.642-2.724,8.027-2.764,8.027,1.492v8.5h-4.22l-.047-5.845c-.018-2.338-.869-2.557-2.015-2.428-.951.107-1.8.452-1.8,2.428v5.845ZM554.65,193.4h4.4v11.834h-4.4ZM533.21,205.229V193.6h4.232v1.634c1.268-2.115,6.155-3.148,7.56.133,1.995-2.984,7.83-2.845,7.827,1.208l0,8.655h-4.486v-6.36c0-1.708-.291-1.873-1.727-1.809-1.175.052-1.443,1.026-1.447,2.131l-.028,6.038h-4.22l-.047-5.845c-.018-2.338-.531-2.537-1.68-2.428s-1.634.266-1.634,2.428v5.845Zm-7.631-12.488a6.244,6.244,0,1,1-6.244,6.244,6.244,6.244,0,0,1,6.244-6.244Zm0,4.023a2.222,2.222,0,1,1-2.218,2.221,2.222,2.222,0,0,1,2.218-2.221Zm-23.4,8.466V188.769h4.894a26.7,26.7,0,0,1,3.978.254,8.886,8.886,0,0,1,2.682.781,8.373,8.373,0,0,1,3.354,2.979,8.225,8.225,0,0,1,0,8.432,8.391,8.391,0,0,1-3.357,2.979,8.986,8.986,0,0,1-2.71.791,30.984,30.984,0,0,1-4.4.246Zm4.887-4.348v-7.764h2a9.476,9.476,0,0,1,1.626.119,3.278,3.278,0,0,1,1.1.369,3.642,3.642,0,0,1,1.37,1.405,4.4,4.4,0,0,1,0,3.978,3.652,3.652,0,0,1-1.371,1.405,3.311,3.311,0,0,1-1.107.373,10.983,10.983,0,0,1-1.8.116Zm73.647-8.14a6.244,6.244,0,1,1-6.244,6.244A6.244,6.244,0,0,1,580.709,192.742Zm0,4.023a2.222,2.222,0,1,1-2.222,2.222,2.222,2.222,0,0,1,2.222-2.222Zm7.546-9.27a2.362,2.362,0,0,1,2.158,1.4,3.385,3.385,0,0,1,.134,2.122c-.264,1.041-1.142,2.06-2.992,3.025l-.511-.69a5.322,5.322,0,0,0,.884-.841c.269-.407-.082-.307-.379-.4a2.363,2.363,0,0,1,.7-4.617Z" transform="translate(-467.058 -177.878)" fill="#fff" fill-rule="evenodd"/>
    <path id="Path_17973" data-name="Path 17973" d="M213.8,57.539l8.6-8.572a.923.923,0,0,1,1.306,0l8.115,8.144a.923.923,0,0,1,0,1.306l-8.6,8.574Zm7.707-1.523a2.309,2.309,0,1,1-.68,1.633A2.309,2.309,0,0,1,221.507,56.016Z" transform="translate(-204.304 -48.696)" fill="#fff" fill-rule="evenodd"/>
    <path id="Path_17974" data-name="Path 17974" d="M96.093,184.335a2.309,2.309,0,1,1-.68,1.633,2.309,2.309,0,0,1,.68-1.633Zm-6.758.021a2.309,2.309,0,1,1-.68,1.633A2.309,2.309,0,0,1,89.335,184.355Zm-3.675.859,8.6-8.572,9.419,9.452-8.6,8.572a.923.923,0,0,1-1.306,0l-8.115-8.146a.923.923,0,0,1,0-1.306Z" transform="translate(-85.387 -167.18)" fill="#fff" fill-rule="evenodd"/>
    <path id="Path_17975" data-name="Path 17975" d="M251.393,407.647v-1.154h-.439v-.2h1.107v.2h-.442v1.154Zm.82,0V406.29h.332l.342,1.082.331-1.082h.326v1.357h-.207V406.51l-.349,1.137h-.2l-.364-1.154v1.154Z" transform="translate(-238.711 -379.85)" fill="#fff"/>
  </g>
</svg>
