<svg id="Group_2113" data-name="Group 2113" xmlns="http://www.w3.org/2000/svg" width="86.975" height="28.573" viewBox="0 0 86.975 28.573">
  <path id="path2998" d="M190.828,388.953H180.659v3.018h7.212c-.356,4.231-3.877,6.036-7.2,6.036a8.059,8.059,0,1,1,.01-16.118,7.825,7.825,0,0,1,5.436,2.181l2.113-2.187a10.741,10.741,0,0,0-7.657-3.019,11.085,11.085,0,1,0,.161,22.169c5.934,0,10.278-4.065,10.278-10.077a9.036,9.036,0,0,0-.184-2Z" transform="translate(-169.568 -378.861)" fill="#fff"/>
  <path id="path3000" d="M243.045,402.149a7.125,7.125,0,1,0,7.15,7.149,6.975,6.975,0,0,0-7.149-7.149Zm.042,2.8a4.113,4.113,0,1,1-2.957,1.287,4.1,4.1,0,0,1,2.957-1.287Z" transform="translate(-213.456 -394.243)" fill="#fff"/>
  <path id="path3005" d="M288.93,402.149a7.125,7.125,0,1,0,7.149,7.149A6.975,6.975,0,0,0,288.93,402.149Zm.042,2.8a4.113,4.113,0,1,1-2.957,1.287,4.1,4.1,0,0,1,2.957-1.287Z" transform="translate(-243.764 -394.243)" fill="#fff"/>
  <path id="path3007" d="M334.523,402.169a7.133,7.133,0,0,0-.066,14.251,4.706,4.706,0,0,0,3.907-1.731v1.4a3.575,3.575,0,0,1-3.745,3.93,3.95,3.95,0,0,1-3.648-2.536l-2.738,1.145a6.855,6.855,0,0,0,6.408,4.2c3.808,0,6.71-2.4,6.71-7.428V402.6h-2.987v1.2a5.04,5.04,0,0,0-3.842-1.635Zm.277,2.793a4.029,4.029,0,0,1,3.805,4.341,3.982,3.982,0,0,1-3.848,4.317,4.048,4.048,0,0,1-3.942-4.29,4.106,4.106,0,0,1,3.983-4.367Z" transform="translate(-274.078 -394.255)" fill="#fff"/>
  <path id="path3011" d="M394.138,402.121c-3.615,0-6.646,2.874-6.646,7.115a6.89,6.89,0,0,0,6.991,7.149,7.229,7.229,0,0,0,5.968-3.127l-2.463-1.639a3.987,3.987,0,0,1-3.49,1.961A3.665,3.665,0,0,1,391,411.422l9.553-3.964-.5-1.161a6.45,6.45,0,0,0-5.925-4.175Zm.125,2.74a2.84,2.84,0,0,1,2.636,1.522l-6.38,2.667A3.958,3.958,0,0,1,394.262,404.861Z" transform="translate(-313.582 -394.224)" fill="#fff"/>
  <path id="path3015" d="M374.079,402.034h3.138v-21h-3.138Z" transform="translate(-304.723 -380.296)" fill="#fff"/>
</svg>
