<svg xmlns="http://www.w3.org/2000/svg" xmlns:xlink="http://www.w3.org/1999/xlink" width="72.916" height="28.573" viewBox="0 0 72.916 28.573">
  <defs>
    <clipPath id="clip-path">
      <rect id="Rectangle_3602" data-name="Rectangle 3602" width="72.916" height="28.573" fill="#fff"/>
    </clipPath>
  </defs>
  <g id="Group_2228" data-name="Group 2228" clip-path="url(#clip-path)">
    <path id="Path_18293" data-name="Path 18293" d="M72.916,0H56.9V14.012a8.773,8.773,0,0,0-1.719,1.953V0H39.171V12.665H37.454V0H21.438V12.666h-.876L19.721,15.5V0H3.706V15.668L0,28.186H3.431c.027-.122.708-2.436,1.54-5.24H7.477l2.087,5.24H13.3l-2.422-5.24h6.627l-1.558,5.24h3.148L20.9,22.057h.538v.89H31.488l-1.58,5.231h2.875l1.528-5.231h2.832l.311,5.231h2.979l3.334-5.231h2.771L45,28.178h3.548l1.285-5.231h2.968c-.048,4.146,3.542,5.628,6.142,5.628a22.9,22.9,0,0,0,5.788-.692L66.1,22.947h6.813ZM10.609,22.363,9.447,19.848l7.579-7.18H12.811l-6.7,6.85,1.132,2.845h-2.1c1.306-4.4,2.882-9.7,2.882-9.7H4.6l-.313,1.056V.584H19.145V17.435l-1.466,4.928ZM21.5,19.778,22.9,14.9c3.451,0,5.754-.292,4.854,2.451-.519,1.58-1.223,2.387-3.525,2.43-.766.014-1.6,0-2.733,0m.517,2.585v-.306h1.406c4.888.006,7.045-2.2,7.5-4.7.871-4.782-2.93-4.728-6.458-4.685H22.015V.583H36.877V12.664H34.593l-2.93,9.7Zm12.465,0,2.182-7.472.445,7.472Zm5.265,3.723c.106-1.037.171-2.086.2-3.139h1.138a24.392,24.392,0,0,0-1.334,3.139m4.392-3.723,4.76-7.47-2.19,7.47Zm5.843,0,2.383-9.7H47.335a76.222,76.222,0,0,0-5.967,9.7H39.953c.029-2.463-.04-4.927-.207-7.372V.583H54.609V16.932a18.6,18.6,0,0,0-1.376,3.433,10.019,10.019,0,0,0-.4,2Zm9.632,3.971c-3.243.012-4.144-2.29-3.073-6.06q.17-.6.364-1.146v3.817H62.94l-.888,2.841s.137.538-2.441.547m12.728-3.971H66.261l.641-2.317H60.416l-.711,2.318H57.478V17.74c1-2.036,2.414-3.264,4.55-3.161,1.976.095,3.1.842,2.554,2.691a2.886,2.886,0,0,1-.1.386l3.145,0c.807-2.377-.8-5.32-5.3-5.32a8.351,8.351,0,0,0-4.849,1.244v-13H72.34Z" fill="#fff"/>
    <path id="Path_18294" data-name="Path 18294" d="M44.294,139.617v0l0,0Z" transform="translate(-38.185 -120.094)" fill="#fff"/>
    <path id="Path_18295" data-name="Path 18295" d="M44.3,139.535l0,0,0-.01Z" transform="translate(-38.187 -120.014)" fill="#fff"/>
  </g>
</svg>
