<?xml version="1.0" encoding="utf-8"?>
<!-- Generator: Adobe Illustrator 19.0.0, SVG Export Plug-In . SVG Version: 6.00 Build 0)  -->
<svg version="1.1" id="layer" xmlns="http://www.w3.org/2000/svg" xmlns:xlink="http://www.w3.org/1999/xlink" x="0px" y="0px"
	 viewBox="-153 -46 652 652" style="enable-background:new -153 -46 652 652;" xml:space="preserve">
<style type="text/css">
	.st0{fill:#3A7AF3;}
</style>
<path id="Shape" class="st0" d="M-89.8,267.2c0,0-5-0.5-5,3.9v19.7H-62v5.9c0,0,0.1,2.9-3,2.9h-29.8v25.6H-59
	c0,0,21.7-3.3,21.9-25.6v-32.4H-89.8z M-38.1,235.8h-64.6c-23.4,5.5-23.9,24.7-23.9,24.7v64.8h24.8v-59c0-5,5-5.9,5-5.9h58.6
	L-38.1,235.8L-38.1,235.8z M47.2,306.7c-1.7,1.1-3,2-3.9,2.5c-3.2,2-6.2,3.5-9,4.7c-4.1,1.7-7.7,2.5-11,2.5
	c-11.2,0-20.5-3.4-27.9-10.3c-7.5-6.9-11.2-15.6-11.2-26c0-10.1,3.3-18.8,10.1-26.3c6.7-7.4,14.9-11.1,24.5-11.1
	c4,0,8.3,0.7,12.7,2.1c5.8,1.8,10.4,4.6,14.2,8.1l-6.4,7.1c-2.7-2.7-6.3-4.6-10.4-5.8c-3.1-0.9-6.5-1.4-10.3-1.4
	c-6.7,0-12.4,2.7-17,8.1c-4.5,5.5-6.8,11.9-6.8,19.5c0,7.5,2.6,13.7,7.8,18.6c5.2,4.9,11.8,7.4,19.8,7.4c3.3,0,6.7-1.1,10.2-3.1
	c2.9-2.2,4.4-3.3,4.4-3.3v-15.6H15.3l3.1-9.7h28.8V306.7z M112.5,287.7c0,7.5-2.7,14-8,19.5c-5.3,5.5-11.9,8.3-19.8,8.3
	c-7.3,0-13.6-2.7-19.1-8.1c-5.5-5.4-8.2-11.9-8.2-19.6c0-7.6,2.6-14.1,7.8-19.7s11.6-8.3,19-8.3c8.3,0,15,2.7,20.3,8
	C109.8,273,112.5,279.7,112.5,287.7z M102.4,287.9c0-5.1-1.7-9.4-5.1-12.9c-3.4-3.6-7.6-5.3-12.7-5.3c-4.7,0-8.7,1.8-12.1,5.5
	c-3.3,3.6-5,7.8-5,12.5c0,4.9,1.7,9.1,5,12.6c3.3,3.5,7.5,5.3,12.5,5.3c4.7,0,8.7-1.7,12.1-5.2C100.7,296.8,102.4,292.6,102.4,287.9
	L102.4,287.9z M177,287.7c0,7.5-2.7,14-8,19.5c-5.3,5.5-11.9,8.3-19.8,8.3c-7.3,0-13.6-2.7-19.1-8.1c-5.5-5.4-8.2-11.9-8.2-19.6
	c0-7.6,2.6-14.1,7.8-19.7c5.2-5.6,11.6-8.3,19-8.3c8.3,0,15,2.7,20.3,8C174.3,273,177,279.7,177,287.7z M166.8,287.9
	c0-5.1-1.7-9.4-5.1-12.9c-3.4-3.6-7.6-5.3-12.7-5.3c-4.7,0-8.7,1.8-12.1,5.5c-3.3,3.6-5,7.8-5,12.5c0,4.9,1.7,9.1,5,12.6
	c3.3,3.5,7.5,5.3,12.5,5.3c4.7,0,8.7-1.7,12.1-5.2C165.1,296.8,166.8,292.6,166.8,287.9L166.8,287.9z M236.6,314l-9.3,1.4v-9l-2,2.3
	c-1.8,1.7-3.8,3-5.9,4.1c-3.2,1.5-6.6,2.2-10.1,2.2c-7.3,0-13.5-2.7-18.5-8s-7.6-11.8-7.6-19.2c0-7.7,2.5-14.3,7.5-19.7
	c5-5.5,11-8.2,18.3-8.2c4.2,0,7.8,0.7,10.8,2c2.2,1,4,2.3,5.6,3.9c0.5,0.7,1,1.4,1.6,2.1v-23.7l9.9-1.4L236.6,314z M227.9,288.4
	c0-5.3-1.8-9.8-5.4-13.4c-3.6-3.7-7.7-5.5-12.4-5.5c-5.2,0-9.3,1.7-12.5,5.2c-3,3.3-4.5,7.4-4.5,12.2c0,5.4,1.6,9.9,4.7,13.4
	c3.1,3.5,7,5.2,11.9,5.2c4.7,0,8.9-1.6,12.6-4.9C226,297.3,227.9,293.2,227.9,288.4L227.9,288.4z M289,254h-27.8v18.9h21.6v9.7
	h-21.6v31.3l-10.8,1.6v-71.3h36.5L289,254z M311.3,248.5l-6.7,8.4l-6.4-8.4l6.7-8.3L311.3,248.5z M309.3,314l-9.9,1.4v-52.8l9.9-1.5
	V314L309.3,314z M354.1,260.5l-4.7,10.8c-0.6-0.1-1.2-0.1-1.9-0.1c-1,0-1.9,0.1-2.9,0.2c-1,0.1-2,0.5-3.1,1.1
	c-2.1,0.9-3.9,2.9-5.4,5.8c-1.7,3.4-2.6,7.1-2.6,10.9v24.7l-9.9,1.6v-52.9l9.2-1.7v11c1.2-1.9,2.4-3.8,3.6-5.8
	c1.7-2,3.7-3.4,5.9-4.3c1.2-0.5,3.3-0.8,6.6-1.1C352.1,260.5,353.9,260.4,354.1,260.5z M428.1,314l-9.9,1.4v-36.2
	c0-3.3-0.7-5.8-2.2-7.3c-1.5-1.5-3.7-2.3-6.6-2.3c-3.5,0-6.1,1.4-7.9,4.3c-1.2,2-1.9,4.1-1.9,6.2v33.7l-9.9,1.8v-36.3
	c0-3.2-0.7-5.6-2.2-7.3c-1.5-1.7-3.4-2.5-5.9-2.5h-1c-3.5,0-6,1.4-7.6,4.4c-1.2,2.2-1.8,5-1.8,8.4v31.4l-10.3,1.8v-53.1l9.3-1.6v6.8
	c1-1.6,2.1-2.9,3-3.8c2.7-2.5,5.8-3.7,9.3-3.7c3.9,0,6.8,0.6,8.8,1.9c1.7,1.1,3.3,3.2,5,6.2c3.4-5.4,8.2-8.1,14.6-8.1
	c6.1,0,10.6,1.9,13.6,5.8c2.4,3.2,3.6,7.9,3.6,14V314z M473.4,298c0,4.9-1.7,8.9-5.1,12c-3.4,3.2-7.7,4.7-12.9,4.7
	c-3.9,0-7.4-0.9-10.6-2.7c-3.2-1.8-5.6-3.9-7.1-6.3l7-6.2c0.5,0.8,1,1.4,1.4,1.8c2.6,2.7,5.7,4,9.3,4c2.5,0,4.5-0.7,5.9-2
	c1.5-1.3,2.2-3.1,2.2-5.5c0-2.7-1.7-4.5-5.1-5.5c-6.7-2-10.4-3.2-10.9-3.4c-3.1-1.6-5.3-3.3-6.7-5.2c-1.6-2.2-2.4-5.1-2.4-8.8
	c0-4.6,1.7-8.3,5-11.4c3.3-3,7.3-4.5,11.9-4.5c3.5,0,6.7,0.8,9.7,2.4c3,1.6,5.1,3.3,6.4,5.2l-5.9,6.4c-0.9-0.9-1.9-1.7-2.9-2.4
	c-2.4-1.7-4.7-2.5-6.8-2.5c-2.1,0-3.8,0.5-5.1,1.4c-1.6,1.1-2.4,2.8-2.4,5c0,2.1,0.7,3.7,2.3,4.7c1.3,0.8,4.1,1.7,8.6,2.7
	c4.4,1.1,7.9,2.9,10.3,5.5C472.3,290.2,473.4,293.6,473.4,298z"/>
</svg>
