<svg xmlns="http://www.w3.org/2000/svg" width="14.044" height="13.458" viewBox="0 0 14.044 13.458">
  <g id="rating_star" transform="translate(0 -0.494)">
    <path id="Path_151" data-name="Path 151" d="M14.007,5.58a.745.745,0,0,0-.643-.513L9.311,4.7,7.709.947a.746.746,0,0,0-1.373,0L4.733,4.7.679,5.066A.747.747,0,0,0,.255,6.373L3.319,9.06l-.9,3.98a.745.745,0,0,0,1.11.806l3.5-2.09,3.5,2.09a.746.746,0,0,0,1.111-.806l-.9-3.98,3.064-2.686a.747.747,0,0,0,.219-.793Zm0,0" transform="translate(0)" fill="#ffc107"/>
  </g>
</svg>
